<?xml version="1.0" encoding="UTF-8"?>
<!DOCTYPE svg PUBLIC "-//W3C//DTD SVG 1.1//EN" "http://www.w3.org/Graphics/SVG/1.1/DTD/svg11.dtd">
<svg xmlns="http://www.w3.org/2000/svg" version="1.1" width="3000px" height="2000px" style="shape-rendering:geometricPrecision; text-rendering:geometricPrecision; image-rendering:optimizeQuality; fill-rule:evenodd; clip-rule:evenodd" xmlns:xlink="http://www.w3.org/1999/xlink">
<g><path style="opacity:0.94" fill="#0f1716" d="M 1464.5,855.5 C 1489.89,855.398 1507.39,867.065 1517,890.5C 1529.17,862.556 1550,852.389 1579.5,860C 1591.45,865.95 1599.95,875.117 1605,887.5C 1610.36,902.184 1612.86,917.351 1612.5,933C 1612.18,956.39 1609.84,979.557 1605.5,1002.5C 1614.58,1008.23 1623.91,1013.57 1633.5,1018.5C 1675.5,986.779 1723,971.446 1776,972.5C 1806.43,972.37 1836.26,976.537 1865.5,985C 1903.03,995.935 1939.37,1009.94 1974.5,1027C 2022.21,1051.52 2070.88,1073.86 2120.5,1094C 2152.07,1106.15 2184.73,1112.98 2218.5,1114.5C 2262.86,1113.56 2300.69,1097.56 2332,1066.5C 2354.21,1039.77 2359.88,1009.77 2349,976.5C 2337.72,944.884 2316.55,922.717 2285.5,910C 2260.59,901.968 2237.92,905.968 2217.5,922C 2196.46,941.731 2192.29,964.564 2205,990.5C 2222.32,1014.79 2243.82,1019.29 2269.5,1004C 2276.65,998.688 2281.65,991.854 2284.5,983.5C 2287.45,982.776 2290.45,982.943 2293.5,984C 2290.46,1001.75 2280.46,1014.42 2263.5,1022C 2227.07,1033.37 2200.57,1021.87 2184,987.5C 2172.22,942.554 2187.39,910.054 2229.5,890C 2277.11,876.311 2317.27,888.144 2350,925.5C 2377.63,960.49 2386.47,999.823 2376.5,1043.5C 2511.5,1043.67 2646.5,1043.5 2781.5,1043C 2788.84,1026.55 2800.84,1021.89 2817.5,1029C 2829.74,1039.5 2831.58,1051.67 2823,1065.5C 2813.58,1074.27 2803.08,1075.77 2791.5,1070C 2786.64,1066.66 2783.64,1062.16 2782.5,1056.5C 2645.5,1056.33 2508.5,1056.5 2371.5,1057C 2358.27,1081.57 2339.6,1100.9 2315.5,1115C 2280.5,1136.58 2242.5,1145.25 2201.5,1141C 2168.41,1137.39 2136.41,1129.39 2105.5,1117C 2085.27,1108.88 2065.27,1100.22 2045.5,1091C 1997.11,1066.3 1948.11,1042.97 1898.5,1021C 1857.04,1003.71 1813.88,994.209 1769,992.5C 1726.01,992.504 1686.51,1004 1650.5,1027C 1719.83,1062.82 1792.16,1091.16 1867.5,1112C 1898.24,1120.44 1929.24,1127.77 1960.5,1134C 1961.01,1136.72 1961.01,1139.55 1960.5,1142.5C 1846.69,1125.17 1738.53,1090.51 1636,1038.5C 1616.64,1056.56 1600.64,1077.23 1588,1100.5C 1581,1113.83 1574,1127.17 1567,1140.5C 1566.44,1141.02 1565.77,1141.36 1565,1141.5C 1562.16,1140.62 1559.66,1139.29 1557.5,1137.5C 1568.64,1095.98 1578.3,1054.14 1586.5,1012C 1564.05,1000.55 1544.88,985.049 1529,965.5C 1523.62,958.075 1519.29,950.075 1516,941.5C 1507.96,961.05 1495.46,977.216 1478.5,990C 1467.97,997.428 1457.3,1004.59 1446.5,1011.5C 1454.69,1053.11 1464.02,1094.45 1474.5,1135.5C 1471.93,1135.85 1469.43,1136.52 1467,1137.5C 1466.23,1137.36 1465.56,1137.02 1465,1136.5C 1451.77,1107.68 1435.77,1080.68 1417,1055.5C 1411.37,1048.86 1405.37,1042.53 1399,1036.5C 1296.04,1088.43 1187.54,1123.43 1073.5,1141.5C 1072.07,1138.67 1071.4,1135.67 1071.5,1132.5C 1180.62,1111.85 1284.62,1076.35 1383.5,1026C 1384.83,1025.33 1384.83,1024.67 1383.5,1024C 1338.36,995.1 1289.02,983.767 1235.5,990C 1189.83,996.332 1146.17,1009.33 1104.5,1029C 1061.38,1049.73 1018.38,1070.73 975.5,1092C 940.745,1108.37 904.745,1121.37 867.5,1131C 792.235,1149.68 728.068,1131.18 675,1075.5C 670.917,1069.67 667.084,1063.67 663.5,1057.5C 514.501,1056.5 365.501,1056.17 216.5,1056.5C 211.998,1069.93 202.665,1075.43 188.5,1073C 175.381,1068.53 169.547,1059.37 171,1045.5C 174.75,1030.77 184.25,1024.27 199.5,1026C 208.405,1028.57 214.405,1034.24 217.5,1043C 364.167,1043.67 510.833,1043.67 657.5,1043C 642.283,982.645 659.617,933.979 709.5,897C 739.092,878.248 770.425,874.582 803.5,886C 842.489,904.634 857.989,935.134 850,977.5C 836.721,1012.89 811.554,1027.05 774.5,1020C 755.095,1013.43 742.762,1000.26 737.5,980.5C 740.77,978.84 744.103,978.506 747.5,979.5C 757.385,1000.62 774.051,1010.12 797.5,1008C 820.877,1000.43 833.21,984.268 834.5,959.5C 830.833,929.324 814.166,910.491 784.5,903C 759.932,899.642 737.932,905.642 718.5,921C 684.127,950.453 671.96,987.286 682,1031.5C 687.817,1046.96 696.983,1060.12 709.5,1071C 755.012,1108.15 806.345,1119.15 863.5,1104C 890.183,1097.33 916.183,1088.66 941.5,1078C 986.757,1057.25 1031.76,1035.91 1076.5,1014C 1119.84,993.442 1165.17,979.109 1212.5,971C 1261.02,963.391 1308.02,968.724 1353.5,987C 1370.85,994.332 1386.52,1004.17 1400.5,1016.5C 1408.17,1012.33 1415.83,1008.17 1423.5,1004C 1425.39,1002.92 1426.39,1001.26 1426.5,999C 1421.08,969.007 1419.58,938.841 1422,908.5C 1424.07,892.192 1430.57,878.025 1441.5,866C 1448.25,860.286 1455.92,856.786 1464.5,855.5 Z M 1463.5,874.5 C 1483.23,874.058 1495.73,883.391 1501,902.5C 1504.64,924.602 1498.98,943.935 1484,960.5C 1472.12,972.55 1458.96,982.883 1444.5,991.5C 1439.53,964.349 1438.36,937.016 1441,909.5C 1442.49,897.682 1447.33,887.515 1455.5,879C 1458.1,877.205 1460.77,875.705 1463.5,874.5 Z M 1557.5,875.5 C 1569.79,874.225 1578.95,878.892 1585,889.5C 1591.58,904.114 1594.41,919.447 1593.5,935.5C 1593.17,954.924 1591.67,974.257 1589,993.5C 1573.72,983.845 1559.72,972.511 1547,959.5C 1530.78,940.051 1526.78,918.384 1535,894.5C 1539.9,884.982 1547.4,878.649 1557.5,875.5 Z M 1428.5,1020.5 C 1429.5,1020.41 1430.33,1020.75 1431,1021.5C 1434.54,1036.64 1438.2,1051.64 1442,1066.5C 1433.65,1053.15 1424.15,1040.65 1413.5,1029C 1418.89,1026.65 1423.89,1023.81 1428.5,1020.5 Z M 1589.5,1071.5 C 1594.13,1054.98 1598.13,1038.32 1601.5,1021.5C 1608.05,1024.11 1614.38,1027.27 1620.5,1031C 1608.77,1043.55 1598.44,1057.05 1589.5,1071.5 Z"/></g>
<g><path style="opacity:0.969" fill="#0f1716" d="M 123.5,1011.5 C 145.189,1009.42 160.023,1018.42 168,1038.5C 172.277,1057.43 166.444,1072.26 150.5,1083C 130.983,1091.9 114.15,1088.4 100,1072.5C 88.591,1052.7 91.091,1034.86 107.5,1019C 112.542,1015.64 117.876,1013.14 123.5,1011.5 Z"/></g>
<g><path style="opacity:0.969" fill="#0f1716" d="M 2860.5,1011.5 C 2887.64,1009.98 2902.98,1022.65 2906.5,1049.5C 2902.8,1077.04 2887.13,1089.54 2859.5,1087C 2837.89,1080.65 2828.06,1066.15 2830,1043.5C 2833.9,1026.77 2844.07,1016.1 2860.5,1011.5 Z"/></g>
<g><path style="opacity:0.929" fill="#0f1716" d="M 67.5,1033.5 C 84.194,1033.22 90.694,1041.22 87,1057.5C 82.3514,1064.5 75.8514,1067 67.5,1065C 57.1452,1060.3 53.9785,1052.47 58,1041.5C 60.7348,1038.23 63.9014,1035.56 67.5,1033.5 Z"/></g>
<g><path style="opacity:0.929" fill="#0f1716" d="M 2921.5,1033.5 C 2936.68,1032.51 2943.51,1039.51 2942,1054.5C 2938.34,1063.85 2931.5,1067.35 2921.5,1065C 2912.15,1061.34 2908.65,1054.5 2911,1044.5C 2913.02,1039.32 2916.52,1035.65 2921.5,1033.5 Z"/></g>
</svg>
