<?xml version="1.0" ?><!DOCTYPE svg  PUBLIC '-//W3C//DTD SVG 1.1//EN'  'http://www.w3.org/Graphics/SVG/1.1/DTD/svg11.dtd'><svg height="8.4666mm" style="shape-rendering:geometricPrecision; text-rendering:geometricPrecision; image-rendering:optimizeQuality; fill-rule:evenodd; clip-rule:evenodd" version="1.1" viewBox="0 0 846.66 846.66" width="8.4666mm" xml:space="preserve" xmlns="http://www.w3.org/2000/svg" xmlns:xlink="http://www.w3.org/1999/xlink"><defs><style type="text/css">
   <![CDATA[
    .fil0 {fill:black;fill-rule:nonzero}
   ]]>
  </style></defs><g id="Layer_x0020_1"><path class="fil0" d="M256.17 567.04c-15.58,22.15 -49.29,-1.57 -33.72,-23.72l101.99 -144.32c7.58,-10.78 23.09,-11.71 31.97,-2.17l91.78 90.15 145.5 -161.03 -49.37 7.18c-26.85,3.82 -32.64,-37 -5.8,-40.82l104.8 -15.24c13.21,-2.55 25.57,8.28 24.51,21.87l-8.66 109.68c-2.12,27.06 -43.26,23.84 -41.14,-3.22l3.89 -49.36 -156.82 173.57c-7.64,9.46 -21.78,10.33 -30.48,1.77l-90.46 -88.85 -87.99 124.51zm-157 -406.37c-15.91,-21.97 17.48,-46.17 33.4,-24.2l14.52 19.96 58.31 -61.12c18.68,-19.63 48.52,8.77 29.85,28.4l-74.7 78.29c-8.64,10.01 -24.47,9.46 -32.31,-1.37l-29.07 -39.96zm68.93 -150.38c58.96,0 111.4,37.27 130.89,92.65l497.65 0c11.41,0 20.66,9.24 20.66,20.65l0 541.35c0,11.4 -9.25,20.65 -20.66,20.65l-291.8 0 0 36.81 104.69 0c11.41,0 20.65,9.25 20.65,20.65l0 72.67c0,11.4 -9.24,20.65 -20.65,20.65l-323.36 0c-11.4,0 -20.65,-9.25 -20.65,-20.65l0 -72.67c0,-11.4 9.25,-20.65 20.65,-20.65l104.7 0 0 -36.81 -291.81 0c-11.4,0 -20.65,-9.25 -20.65,-20.65l0 -410.07c-31.15,-26.42 -49.04,-64.93 -49.04,-105.85 0,-76.61 62.11,-138.73 138.73,-138.73zm138.64 133.95c0.05,1.59 0.09,3.18 0.09,4.78 0,76.62 -62.12,138.73 -138.73,138.73 -17.02,0 -33.32,-3.06 -48.38,-8.67l0 365.21c218.76,0 437.51,0 656.27,0l0 -500.05 -469.25 0zm-138.64 -92.65c-53.81,0 -97.43,43.62 -97.43,97.43 0,53.8 43.62,97.43 97.43,97.43 53.8,0 97.42,-43.62 97.42,-97.43 0,-53.05 -42.87,-97.43 -97.42,-97.43zm420.78 712.12c-94.02,0 -188.04,0 -282.05,0l0 31.36 282.05 0 0 -31.36zm-156.71 -78.12l0 36.81 31.36 0 0 -36.81 -31.36 0z"/></g></svg>