<?xml version="1.0" standalone="no"?>
<!DOCTYPE svg PUBLIC "-//W3C//DTD SVG 20010904//EN"
 "http://www.w3.org/TR/2001/REC-SVG-20010904/DTD/svg10.dtd">
<svg version="1.0" xmlns="http://www.w3.org/2000/svg"
 width="564.000000pt" height="563.000000pt" viewBox="0 0 564.000000 563.000000"
 preserveAspectRatio="xMidYMid meet">

<g transform="translate(0.000000,563.000000) scale(0.100000,-0.100000)"
fill="#000000" stroke="none">
<path d="M1612 5404 c-28 -20 -28 -40 3 -89 29 -48 29 -49 9 -69 -23 -24 -172
-21 -244 4 -76 27 -97 25 -132 -10 -26 -26 -30 -36 -25 -66 11 -68 36 -79 95
-39 44 30 83 32 107 5 26 -29 88 -33 210 -14 164 26 266 22 425 -14 74 -17
167 -33 206 -35 117 -8 163 -38 178 -114 5 -31 4 -33 -24 -33 -33 0 -55 -29
-47 -61 3 -10 -1 -23 -9 -30 -8 -6 -14 -26 -14 -45 0 -18 -5 -36 -11 -40 -7
-4 -10 3 -9 17 4 45 0 56 -22 66 -30 13 -68 -1 -75 -27 -3 -11 -12 -20 -19
-20 -8 0 -14 -7 -14 -16 0 -11 5 -14 16 -10 10 4 25 -1 35 -10 12 -11 27 -14
44 -10 14 4 25 3 25 -1 0 -5 18 -9 41 -9 22 -1 43 -5 47 -8 10 -11 -18 -24
-38 -19 -25 7 -55 -58 -56 -122 0 -27 -4 -58 -8 -68 -5 -10 -4 -28 1 -40 11
-25 6 -50 -8 -41 -5 3 -9 16 -9 29 0 26 -17 36 -41 24 -10 -5 -24 1 -45 20
-25 24 -32 26 -56 17 -16 -6 -28 -14 -28 -18 0 -4 -6 -8 -14 -8 -23 0 -31 -41
-12 -55 23 -17 22 -56 -1 -49 -17 5 -16 4 0 -9 18 -15 18 -15 -2 -22 -12 -3
-25 -3 -31 0 -5 3 -10 0 -10 -8 0 -8 7 -18 16 -21 9 -4 14 -9 11 -12 -3 -3
-17 2 -31 11 -21 14 -29 15 -41 5 -20 -17 -19 -36 2 -44 15 -6 15 -8 3 -16 -8
-5 -15 -15 -15 -21 0 -7 -6 -14 -12 -16 -10 -4 -13 13 -13 61 0 55 3 66 17 66
16 0 16 1 0 13 -15 11 -15 18 2 98 12 57 25 93 39 107 26 26 28 48 6 91 -18
37 -47 39 -52 3 -3 -18 -9 -21 -35 -19 -27 2 -31 -1 -32 -23 0 -20 -6 -26 -30
-30 -27 -5 -31 -9 -35 -50 -3 -25 -2 -58 3 -75 9 -35 5 -465 -5 -465 -3 0 -8
6 -11 13 -3 9 -9 9 -24 0 -18 -10 -22 -7 -36 23 -9 19 -21 34 -27 34 -5 0 -10
11 -10 25 0 25 -14 33 -25 15 -3 -5 -11 -10 -18 -10 -8 0 -8 3 1 12 7 7 12 20
12 30 0 10 7 21 15 24 15 6 21 43 8 45 -5 0 -18 2 -30 5 -25 4 -29 -7 -13 -36
7 -13 6 -26 -5 -46 -15 -30 -45 -42 -45 -18 0 8 7 14 16 14 9 0 14 7 12 18 -2
11 -11 16 -26 14 -13 -2 -25 3 -28 12 -5 14 -9 14 -34 1 -35 -18 -42 -37 -23
-64 14 -20 13 -24 -3 -42 -9 -10 -31 -20 -48 -20 -18 -1 -23 -3 -13 -6 12 -3
16 -10 12 -24 -4 -11 -2 -19 4 -19 6 0 11 -9 11 -20 0 -11 16 -38 35 -59 23
-25 32 -42 25 -46 -8 -5 -6 -13 5 -25 9 -10 17 -33 18 -53 1 -19 9 -42 16 -51
7 -9 10 -16 6 -16 -4 0 -1 -8 6 -17 13 -16 12 -17 -2 -5 -9 7 -21 12 -25 11
-21 -4 -26 2 -14 16 20 24 -2 41 -24 20 -15 -15 -16 -15 -16 2 0 10 -5 25 -10
33 -7 12 -12 12 -22 2 -6 -6 -16 -12 -20 -12 -13 0 -9 38 5 44 9 5 9 7 -1 12
-10 5 -9 9 5 19 13 10 15 16 6 27 -8 9 -9 19 -3 28 15 23 12 30 -11 30 -17 0
-19 3 -10 14 8 10 9 16 1 21 -5 3 -10 13 -10 22 0 9 -7 23 -15 32 -9 9 -37 45
-64 81 -27 36 -73 88 -103 117 -31 28 -58 59 -61 67 -4 9 -10 15 -14 14 -17
-6 -94 68 -144 139 -75 105 -111 120 -214 87 -74 -24 -80 -28 -83 -59 -6 -48
16 -83 64 -101 67 -26 143 -126 144 -190 0 -29 -18 -32 -130 -21 -124 11 -293
2 -411 -23 -114 -24 -190 -25 -235 -4 -40 19 -57 15 -80 -21 -14 -22 -15 -32
-5 -65 21 -70 87 -92 132 -44 32 35 54 45 121 59 55 12 58 12 80 -13 13 -13
53 -51 90 -83 37 -32 62 -59 56 -61 -7 -3 -9 -12 -5 -22 4 -11 13 -15 25 -12
13 4 18 1 18 -14 0 -14 -5 -19 -15 -15 -10 4 -9 -2 5 -17 12 -13 24 -31 27
-41 4 -9 14 -20 23 -24 9 -3 35 -25 58 -47 22 -23 78 -70 124 -104 75 -57 212
-190 220 -213 2 -5 -9 -9 -23 -9 -25 0 -27 -3 -22 -30 8 -36 -17 -67 -39 -49
-11 9 -10 14 9 29 18 15 20 22 11 37 -15 24 -67 29 -84 8 -11 -13 -11 -21 -2
-36 20 -32 -8 -23 -50 15 -25 23 -39 46 -44 72 -3 22 -11 45 -17 52 -16 20
-37 14 -37 -12 0 -31 -23 -49 -52 -41 l-23 7 23 -17 c12 -9 22 -26 22 -39 0
-30 18 -46 51 -46 32 0 48 -18 28 -32 -11 -8 -10 -9 3 -5 16 5 31 -13 33 -40
1 -16 36 -53 50 -53 7 0 20 -9 30 -20 18 -20 17 -20 -11 -22 -51 -2 -68 2
-129 31 -33 16 -86 39 -118 51 -35 13 -55 26 -51 32 4 7 2 8 -4 4 -17 -10 -50
11 -117 75 -68 65 -115 90 -115 61 0 -9 -9 -23 -20 -30 -24 -14 -26 -54 -5
-72 9 -8 28 -10 52 -6 67 12 103 7 136 -18 18 -14 55 -35 82 -48 57 -26 100
-64 82 -71 -9 -3 -9 -7 0 -17 10 -11 41 -20 128 -37 17 -3 40 -12 52 -20 12
-8 24 -14 27 -14 23 3 26 -2 20 -37 -6 -36 -4 -38 28 -48 21 -7 43 -7 58 -2
15 5 27 5 34 -2 15 -15 -1 -28 -92 -77 -32 -16 -33 -16 -54 5 -13 12 -17 22
-10 22 6 0 12 8 12 18 0 14 -2 15 -10 2 -10 -16 -13 -9 -11 25 0 11 -2 14 -5
8 -8 -19 -21 -16 -46 9 -25 25 -39 8 -17 -20 31 -38 38 -59 26 -72 -9 -9 -8
-11 8 -9 11 2 26 0 33 -5 11 -6 10 -12 -4 -27 -24 -27 -35 -24 -79 21 -21 22
-36 40 -32 40 3 0 -4 10 -16 23 -12 12 -31 35 -42 50 -18 24 -21 26 -21 8 0
-11 4 -17 8 -15 12 8 60 -77 55 -96 -3 -12 0 -16 12 -14 9 2 31 -10 49 -26 33
-31 39 -59 13 -68 -8 -3 -11 0 -7 7 9 14 1 14 -23 -1 -10 -6 -26 -8 -36 -4
-28 10 2 39 34 32 22 -5 23 -4 9 4 -10 6 -18 18 -18 26 0 9 -6 14 -12 11 -7
-2 -12 -11 -10 -21 2 -9 -2 -16 -8 -16 -5 0 -10 6 -10 13 0 8 -4 7 -10 -3 -8
-13 -10 -13 -10 2 0 11 -5 15 -15 12 -8 -4 -15 -2 -15 4 0 10 -76 -12 -96 -29
-6 -5 -13 -7 -15 -5 -2 2 -4 -13 -4 -35 0 -21 4 -39 9 -39 4 0 5 -12 2 -26 -7
-26 -7 -26 41 -19 26 3 68 15 92 26 24 10 55 19 68 19 18 0 24 4 19 15 -3 8
-1 15 5 15 7 0 8 -14 5 -37 -4 -21 -8 -62 -10 -91 -2 -29 -8 -58 -14 -65 -6
-7 -12 -26 -14 -42 -2 -23 2 -32 19 -40 13 -5 25 -16 28 -23 5 -14 -7 -13 -62
4 -10 3 -5 -2 10 -11 19 -11 27 -22 23 -32 -5 -13 -4 -13 8 -4 14 12 46 5 46
-10 0 -4 6 -6 14 -3 20 8 28 -12 11 -26 -10 -9 -15 -9 -15 -1 0 6 -9 11 -20
11 -14 0 -18 5 -13 16 5 14 3 13 -15 -2 -26 -22 -29 -36 -6 -27 10 4 17 -1 21
-16 3 -11 9 -21 14 -21 5 0 6 8 2 18 -5 14 -3 15 7 5 11 -11 10 -17 -10 -38
-13 -14 -19 -25 -13 -25 6 0 16 7 23 15 6 8 15 14 18 13 26 -3 31 3 22 26 -7
19 -5 26 6 30 12 5 14 1 9 -15 -5 -14 -1 -25 10 -33 14 -10 16 -17 7 -32 -10
-17 -11 -17 -12 -1 0 9 -5 17 -11 17 -5 0 -7 -4 -4 -10 3 -5 1 -10 -5 -10 -7
0 -10 -7 -6 -15 3 -8 1 -15 -5 -15 -6 0 -9 -7 -5 -15 4 -10 -5 -17 -27 -24
-18 -5 -25 -10 -17 -10 9 -1 -5 -20 -35 -46 -55 -50 -53 -49 -89 -35 -29 11
-34 0 -11 -24 14 -13 11 -18 -20 -41 -28 -22 -44 -26 -82 -25 -76 4 -76 4 -58
-30 19 -36 63 -51 77 -26 8 14 13 15 24 5 12 -9 13 -9 9 3 -4 11 8 24 39 42
46 27 61 32 52 17 -9 -13 45 -34 58 -21 7 7 5 10 -8 10 -9 0 -14 5 -11 10 3 6
-1 13 -9 16 -9 3 -16 10 -16 15 0 16 25 9 40 -11 8 -11 22 -20 32 -20 21 0 23
11 6 28 -26 26 9 10 39 -18 18 -17 37 -30 42 -30 6 0 11 -4 11 -10 0 -5 5 -10
11 -10 5 0 7 5 4 10 -9 14 17 12 38 -4 23 -17 22 -32 -3 -39 -23 -6 -28 -37
-6 -37 8 0 17 -7 20 -16 9 -22 8 -24 -10 -24 -8 0 -12 5 -9 10 3 6 1 10 -4 10
-6 0 -11 -6 -11 -14 0 -24 -26 -38 -40 -21 -7 8 -17 12 -22 9 -6 -4 -14 0 -19
7 -7 11 -9 11 -9 -2 0 -9 -7 -20 -16 -23 -14 -5 -15 -4 -4 9 7 8 9 22 6 32 -9
23 -25 5 -30 -35 -2 -17 -9 -38 -15 -46 -8 -9 -8 -16 -2 -20 5 -4 14 2 20 11
9 16 10 14 11 -9 0 -16 -4 -28 -10 -28 -5 0 -10 -7 -10 -16 0 -11 -6 -14 -20
-9 -14 4 -20 2 -20 -8 0 -8 10 -18 23 -22 13 -4 17 -8 10 -12 -18 -7 -16 -40
2 -47 19 -7 19 -26 0 -26 -17 0 -19 -18 -5 -40 10 -16 -10 -54 -39 -77 -9 -7
-12 -13 -8 -13 4 0 -9 -26 -29 -57 -62 -97 -56 -154 28 -273 39 -56 40 -60 28
-90 -11 -28 -11 -34 7 -58 25 -34 44 -34 60 -2 24 48 16 111 -22 170 -41 64
-42 77 -10 150 23 53 43 70 53 41 3 -8 0 -11 -6 -7 -5 3 -12 0 -15 -8 -7 -19
26 -15 46 6 9 9 17 24 17 32 0 9 6 16 13 16 8 0 7 4 -3 10 -9 6 -10 10 -3 10
6 0 18 3 27 6 10 4 17 -2 22 -20 6 -26 27 -35 39 -16 3 6 15 10 26 10 11 0 18
-4 15 -9 -11 -16 27 -22 44 -6 9 8 20 12 24 8 4 -5 12 -8 18 -8 6 0 14 -10 19
-23 10 -25 -2 -29 -24 -8 -13 13 -17 13 -33 0 -18 -14 -18 -15 2 -32 12 -10
25 -28 29 -41 6 -19 12 -21 38 -16 18 3 28 3 22 -2 -20 -16 -17 -43 5 -43 15
0 20 7 21 28 0 15 3 21 6 15 2 -7 12 -13 20 -13 13 0 13 -3 2 -16 -16 -20 -19
-54 -5 -54 23 0 35 37 25 74 -6 20 -7 41 -4 46 3 6 1 10 -4 10 -6 0 -11 -4
-11 -8 0 -4 -16 -8 -35 -8 -40 0 -41 3 -19 34 20 29 37 29 29 0 -7 -23 -7 -23
9 -3 14 19 23 66 9 52 -3 -4 -12 1 -19 11 -16 20 -18 36 -4 27 13 -8 50 4 50
16 0 6 -4 8 -9 4 -5 -3 -12 -1 -16 5 -8 14 11 13 34 -2 10 -6 16 -19 14 -28
-3 -11 3 -19 16 -23 12 -3 21 0 21 5 0 6 6 6 14 -1 11 -9 20 -9 34 -2 17 9 25
5 51 -21 l31 -32 30 29 c25 24 30 26 36 12 8 -23 36 -21 67 3 14 11 33 20 42
20 13 0 15 -7 9 -38 -9 -48 -11 -51 -33 -45 -23 6 -39 -15 -17 -22 51 -16 49
-14 32 -31 -19 -19 -20 -26 -4 -42 17 -17 47 -15 54 3 7 17 44 21 44 4 0 -16
-51 -79 -64 -79 -6 0 -3 5 6 11 23 13 12 38 -15 34 -35 -4 -107 -39 -107 -51
0 -6 10 -15 22 -21 28 -12 32 -70 5 -77 -10 -2 -21 4 -28 16 -10 18 -17 19
-62 14 -27 -4 -63 -14 -78 -22 -31 -16 -53 -49 -44 -64 10 -15 58 -12 84 6 16
12 35 15 66 11 23 -4 57 -2 74 3 27 7 30 7 22 -7 -4 -9 -6 -24 -4 -34 4 -15 0
-19 -20 -19 -38 0 -43 -19 -8 -26 17 -4 31 -10 31 -15 0 -20 31 -7 52 21 21
29 48 40 48 20 0 -5 -5 -10 -11 -10 -6 0 -9 -6 -6 -14 3 -8 -10 -34 -28 -58
-19 -24 -35 -47 -35 -51 0 -5 -8 -19 -19 -32 -13 -17 -21 -21 -29 -13 -14 14
-58 2 -66 -18 -7 -17 10 -54 24 -54 6 0 -10 -30 -35 -66 -48 -70 -53 -84 -31
-84 15 0 29 16 86 100 19 29 52 71 73 95 20 23 37 46 37 51 0 9 44 77 71 109
9 11 19 33 23 49 8 32 96 126 118 126 8 0 19 -5 25 -11 15 -15 -11 -44 -31
-36 -14 5 -36 -10 -36 -25 0 -12 34 -10 48 4 9 9 13 7 18 -7 5 -11 3 -20 -4
-23 -6 -2 -8 -10 -5 -19 4 -11 2 -14 -5 -9 -7 4 -16 5 -22 1 -14 -8 0 -37 16
-31 7 3 29 -3 50 -13 32 -16 34 -19 15 -24 -16 -4 -21 -13 -21 -35 0 -17 4
-34 10 -37 11 -6 54 32 62 55 2 7 21 15 43 16 l38 3 -51 -47 c-40 -37 -52 -55
-52 -78 0 -17 5 -35 10 -40 8 -8 6 -15 -5 -24 -32 -27 -12 -80 31 -80 29 0 47
24 42 55 -4 18 0 26 13 30 11 4 24 15 29 25 10 19 11 19 45 -2 24 -14 33 -24
26 -32 -5 -6 -9 -41 -9 -79 0 -63 2 -68 24 -73 25 -6 54 10 54 30 0 6 9 17 21
24 16 10 24 10 35 1 7 -6 21 -9 29 -5 21 8 19 43 -2 51 -10 3 -25 21 -35 41
-15 34 -15 35 1 20 41 -37 78 -5 72 63 -1 17 -48 7 -73 -16 -22 -20 -23 -11
-3 27 8 16 24 31 35 35 11 3 29 19 40 34 17 25 18 30 5 41 -12 10 -13 16 -4
26 6 8 17 14 23 14 12 0 14 -49 2 -69 -12 -19 13 -44 30 -30 8 6 14 18 14 25
0 14 12 18 38 15 7 -1 12 9 12 24 0 14 -4 25 -10 25 -5 0 -10 5 -10 10 0 6 14
10 32 10 17 0 28 -3 25 -7 -4 -3 -2 -12 3 -19 6 -6 9 -17 8 -24 -2 -6 5 -17
14 -23 26 -17 39 2 29 38 -6 18 -10 23 -10 11 -1 -15 -4 -16 -16 -6 -21 18 -9
30 30 30 31 0 33 -2 31 -33 0 -21 3 -31 12 -30 6 2 12 -2 12 -7 0 -14 -13 -13
-29 3 -12 10 -13 9 -7 -7 4 -12 1 -23 -6 -29 -13 -9 0 -6 37 9 8 3 15 1 15 -6
0 -6 -4 -8 -10 -5 -22 13 -8 -11 16 -30 14 -10 32 -31 40 -46 13 -26 12 -29
-7 -42 -16 -12 -19 -19 -11 -34 8 -15 7 -22 -8 -31 -14 -9 -19 -8 -24 3 -3 8
-10 15 -15 15 -7 0 -6 -9 1 -25 6 -14 17 -24 24 -21 18 7 50 -19 36 -28 -13
-8 -16 -27 -4 -24 4 0 15 -2 25 -7 9 -4 29 -5 43 -2 23 4 28 -1 45 -40 31 -73
33 -111 9 -177 -14 -36 -25 -54 -30 -46 -16 26 -17 -7 -1 -55 12 -39 17 -45
19 -27 3 20 8 23 28 18 66 -17 132 76 89 124 -9 10 -27 59 -40 109 -28 105
-28 104 -16 96 5 -3 12 -1 16 5 3 5 3 10 -2 10 -4 0 -15 4 -23 10 -12 7 -12
12 4 29 11 12 25 21 33 21 7 0 13 4 13 10 0 5 7 7 15 4 16 -6 20 12 9 40 -8
21 -24 20 -24 -2 0 -9 -13 -23 -29 -30 -24 -11 -33 -11 -50 0 -12 7 -19 18
-17 25 3 6 -1 13 -7 16 -7 2 -21 29 -31 58 -10 30 -23 60 -29 66 -5 7 -7 13
-3 13 3 0 1 11 -4 25 -11 30 11 46 49 36 26 -7 41 -31 20 -31 -9 0 -10 -3 -3
-10 12 -12 44 -3 44 11 0 5 7 9 15 9 22 0 18 -21 -5 -27 -24 -6 -25 -16 -6
-32 11 -10 19 -7 35 10 l20 22 20 -24 c10 -13 17 -30 14 -39 -4 -12 -3 -12 5
-1 13 18 33 5 25 -17 -6 -15 -5 -15 10 -3 15 12 23 11 60 -2 82 -30 124 -38
166 -28 39 8 41 8 60 -24 24 -42 63 -68 93 -63 37 5 34 40 -7 81 -39 39 -43
61 -19 96 16 23 16 78 -1 126 -6 19 -6 19 8 3 20 -25 98 -24 121 0 32 37 -12
104 -58 86 -19 -7 -22 -64 -3 -83 22 -24 -35 9 -62 36 -33 32 -51 69 -58 120
-7 54 8 57 69 13 22 -17 49 -30 59 -30 20 0 56 46 45 57 -3 4 2 15 11 25 13
15 15 23 6 36 -6 10 -14 32 -17 50 -4 17 -12 34 -17 37 -14 9 -11 25 5 25 7 0
27 -14 44 -31 17 -17 34 -29 39 -26 5 3 10 -3 10 -14 1 -11 -2 -17 -8 -14 -12
8 -11 1 3 -30 12 -26 32 -36 22 -11 -3 9 6 19 25 27 43 19 41 57 -2 50 -9 -1
-56 50 -57 62 0 12 37 8 52 -5 14 -14 33 -20 58 -21 28 -1 40 -20 23 -39 -14
-16 -14 -20 1 -43 17 -26 40 -33 51 -15 6 10 102 60 114 60 3 0 0 -5 -7 -12
-7 -7 -12 -20 -12 -30 0 -10 -10 -20 -25 -24 -38 -10 -51 -31 -31 -53 19 -21
12 -48 -15 -56 -27 -9 -24 -30 7 -44 21 -9 30 -9 43 2 9 8 28 17 44 21 16 4
27 13 27 23 0 16 1 16 17 0 13 -13 14 -19 5 -29 -20 -20 -14 -55 9 -61 15 -4
20 -11 15 -23 -8 -21 10 -44 35 -44 12 0 19 -7 19 -19 0 -28 17 -35 42 -17 29
21 48 20 65 -1 12 -16 13 -15 7 10 -4 17 -2 27 5 27 22 0 10 36 -17 52 -23 14
-31 14 -52 3 -20 -11 -28 -10 -47 2 -12 8 -26 12 -31 9 -4 -3 -6 8 -4 25 3 23
9 29 26 28 49 -4 57 0 46 22 -7 11 -10 22 -8 23 2 1 16 6 33 12 37 12 43 36
15 62 -15 14 -18 22 -10 27 7 4 28 -8 50 -30 l39 -38 -25 -19 c-48 -38 -16
-90 52 -87 22 1 47 -2 56 -6 12 -5 20 -2 24 9 5 14 9 14 22 4 11 -9 10 -5 -4
17 -10 17 -22 32 -25 35 -4 3 -48 41 -98 85 l-91 80 33 5 c30 5 62 -14 51 -31
-2 -4 7 -10 21 -13 13 -3 29 -15 35 -26 12 -23 52 -26 69 -6 9 11 10 20 1 36
-9 18 -7 23 20 38 25 14 29 21 24 44 -4 21 -2 28 10 28 8 0 20 9 26 20 12 22
1 27 -18 8 -7 -7 -12 -10 -13 -8 -6 45 -6 59 2 55 5 -4 9 -2 9 4 0 5 14 12 30
16 17 4 30 11 30 17 0 6 7 7 16 4 8 -3 12 -2 9 4 -3 6 -1 10 4 10 19 0 12 16
-11 29 -22 11 -21 11 7 7 16 -2 38 0 47 5 14 7 18 6 18 -6 0 -24 23 -13 27 13
4 26 -27 31 -47 7 -16 -20 -34 -19 -26 0 4 11 -3 19 -21 26 -37 14 -20 24 18
10 21 -7 36 -8 43 -1 6 6 17 1 33 -16 16 -18 29 -23 44 -19 11 4 18 13 16 20
-3 7 0 18 6 24 8 8 7 11 -6 11 -23 0 -21 16 4 34 26 18 61 10 37 -8 -18 -14
-40 -136 -24 -136 6 0 20 -3 31 -6 17 -4 21 0 23 22 1 15 3 28 5 30 1 1 30 4
65 7 66 5 78 9 67 26 -8 13 -52 15 -59 2 -8 -13 -76 -19 -75 -6 3 24 -2 35
-16 35 -35 0 -6 27 48 44 10 3 17 15 17 31 0 14 5 25 10 25 6 0 10 -5 10 -11
0 -6 7 -8 16 -5 9 4 23 1 31 -5 7 -7 17 -9 20 -5 7 6 -9 21 -30 29 -5 1 -5 9
-2 18 4 12 24 16 88 18 45 1 143 6 217 11 74 5 186 10 248 10 129 0 149 -7
224 -76 38 -35 43 -44 27 -44 -11 0 -17 -4 -14 -10 3 -5 39 -10 78 -9 72 1 75
2 25 13 -28 6 -28 6 -8 26 37 37 18 134 -31 160 -15 9 -33 8 -67 -1 -36 -9
-60 -9 -100 0 -29 6 -88 11 -132 11 -73 0 -78 1 -73 20 3 11 1 20 -5 20 -5 0
-12 -9 -15 -20 -5 -19 -14 -20 -175 -20 -127 0 -172 3 -176 12 -4 9 -8 9 -11
2 -8 -15 -65 -5 -65 12 0 8 -6 11 -17 7 -10 -4 -14 -2 -9 5 3 6 2 13 -4 17 -5
3 -10 11 -10 16 0 6 5 7 10 4 13 -8 50 3 50 15 0 5 -7 7 -15 4 -8 -4 -15 -1
-15 5 0 6 6 11 13 11 18 0 37 -21 37 -41 0 -9 7 -20 16 -23 22 -8 26 -8 19 4
-3 6 -2 10 3 10 6 0 13 7 16 16 5 14 4 15 -9 4 -25 -21 -19 9 6 31 l22 19 -32
6 c-21 4 -29 10 -23 16 6 6 17 6 30 -1 30 -16 42 -14 51 11 l8 21 21 -21 c12
-12 19 -28 16 -37 -4 -10 0 -15 14 -15 28 0 35 15 21 42 -7 13 -13 37 -13 53
-1 25 -5 30 -24 27 -13 -2 -29 2 -37 8 -8 7 -19 9 -25 5 -6 -3 -10 3 -10 14 0
14 6 21 20 21 30 0 24 15 -17 49 -21 17 -32 31 -25 31 7 0 12 7 10 15 -2 9 9
23 24 32 25 16 28 16 65 -10 22 -15 44 -27 51 -27 23 0 12 40 -13 52 -14 6
-25 14 -25 18 0 14 47 50 85 66 22 9 43 21 47 28 14 20 8 45 -12 56 -16 9 -22
6 -34 -18 -10 -19 -26 -31 -44 -35 -16 -3 -55 -30 -87 -58 -49 -46 -59 -51
-76 -41 -26 17 -27 16 -37 -19 -4 -19 -17 -35 -29 -40 -20 -7 -22 -5 -18 22 2
20 -1 29 -11 29 -8 0 -14 -5 -14 -11 0 -17 -27 -39 -49 -39 -11 0 -31 -5 -45
-12 -20 -9 -24 -16 -20 -35 4 -12 2 -23 -3 -23 -13 0 -43 34 -43 48 0 7 -7 12
-15 12 -8 0 -15 3 -16 8 0 4 -2 19 -4 33 -3 22 0 26 16 22 11 -3 18 -13 17
-22 -2 -11 5 -17 22 -18 14 -1 18 0 8 3 -10 3 -18 9 -18 14 0 5 7 7 15 4 9 -4
15 0 15 10 0 9 -8 16 -21 16 -11 0 -18 4 -15 9 3 4 18 7 33 5 26 -4 26 -3 -6
12 -25 11 -31 18 -22 27 16 16 14 37 -5 37 -9 0 -14 3 -12 8 2 4 14 30 27 57
l23 50 13 -25 c16 -33 13 -64 -10 -90 -18 -20 -18 -20 8 -20 29 0 36 -14 13
-23 -8 -3 -17 -1 -20 6 -3 9 -5 8 -5 -1 -1 -7 7 -15 17 -19 9 -3 24 -12 32
-19 26 -22 140 8 140 37 0 5 -11 9 -23 9 -23 0 -66 35 -59 48 2 4 -1 8 -6 10
-20 6 -20 -40 -1 -59 34 -34 15 -44 -20 -11 -19 17 -29 32 -22 36 5 4 8 13 5
21 -4 8 1 18 10 21 12 4 13 11 6 24 -6 10 -7 26 -4 35 4 9 -2 25 -12 37 l-19
21 62 -7 c35 -4 85 -14 112 -22 27 -8 96 -20 153 -28 111 -15 148 -29 187 -70
60 -64 236 -8 217 69 -9 36 -32 41 -76 16 -21 -11 -55 -21 -76 -21 -33 0 -42
5 -57 31 -9 17 -31 36 -47 42 -17 6 -30 15 -30 20 0 4 -21 5 -46 1 -34 -5 -48
-3 -55 7 -7 11 -9 11 -9 1 0 -10 -20 -13 -77 -11 -142 3 -160 30 -63 98 39 28
60 49 60 62 0 16 4 19 23 13 36 -11 42 -17 42 -49 0 -22 7 -33 28 -45 24 -13
30 -13 55 0 37 21 40 52 7 78 -25 20 -26 22 -9 46 23 37 5 56 -53 56 -24 0
-53 5 -64 11 -20 10 -20 11 -3 30 9 10 13 19 8 19 -5 0 11 13 35 29 38 26 46
28 58 15 17 -17 19 -17 44 -4 23 13 24 24 3 45 -15 14 -13 19 18 54 18 21 47
45 63 52 17 7 33 17 37 23 12 17 -12 46 -37 46 -19 0 -28 -8 -39 -33 -17 -41
-99 -132 -147 -162 -43 -28 -109 -48 -109 -34 0 6 -9 8 -19 4 -14 -4 -19 -1
-17 12 1 14 -6 18 -29 18 -23 0 -29 4 -27 18 2 10 -6 21 -20 27 -28 11 -25 11
96 15 49 2 82 8 86 16 5 7 25 14 46 16 48 5 58 13 16 13 -18 0 -32 4 -32 10 0
5 -3 9 -7 8 -5 -1 -28 8 -52 20 -25 12 -51 22 -59 22 -9 0 -11 7 -7 20 4 14 2
20 -8 20 -11 0 -13 11 -9 50 4 41 1 54 -14 66 -17 14 -15 15 33 10 51 -5 54
-4 69 25 8 17 13 33 10 37 -3 3 -6 1 -6 -5 0 -6 -8 -9 -18 -6 -10 2 -26 -5
-36 -16 -25 -27 -50 -28 -41 -1 9 27 -3 44 -20 30 -8 -7 -20 -7 -36 -1 -24 10
-24 10 -2 10 12 1 27 9 32 20 7 13 18 17 36 14 15 -3 25 -1 25 6 0 6 -11 11
-24 11 -14 0 -28 5 -32 11 -4 7 -20 9 -40 6 -40 -7 -37 10 6 35 36 21 38 36 6
73 -23 26 -27 28 -67 19 -23 -5 -44 -15 -47 -23 -3 -8 0 -11 5 -8 11 7 40 -10
31 -18 -3 -4 -15 -2 -25 3 -10 6 -31 8 -46 5 -15 -3 -27 -2 -27 2 0 10 27 35
39 35 6 0 11 4 11 9 0 10 -40 23 -40 13 0 -4 -8 -17 -18 -30 l-18 -23 4 34 c3
26 -2 39 -19 56 -12 11 -29 21 -37 21 -11 0 -12 3 -3 13 6 8 9 16 6 19 -3 2
29 12 70 22 81 19 110 12 98 -22 -3 -10 -1 -13 4 -7 4 6 21 11 36 12 33 1 67
29 67 55 0 10 5 18 10 18 6 0 22 11 35 25 33 32 34 93 3 130 -24 27 -27 28
-126 19 -43 -3 -62 -1 -57 6 3 5 13 10 21 10 8 0 14 8 14 18 1 16 1 16 11 -1
6 -9 15 -15 20 -12 5 4 6 12 2 18 -4 7 0 6 10 -2 11 -9 17 -10 17 -2 0 6 9 11
20 11 20 0 21 0 2 20 -13 14 -33 22 -59 23 l-40 1 39 33 c22 18 47 33 56 33
25 0 87 61 72 70 -13 8 -8 13 38 37 19 10 26 10 38 -1 24 -25 51 -28 73 -9 27
23 26 27 -6 42 -18 8 -29 9 -31 2 -2 -7 -12 -7 -28 -1 -18 7 -23 7 -18 -1 4
-7 -7 -1 -24 11 -30 22 -32 22 -56 6 -15 -9 -26 -25 -26 -36 0 -20 -9 -24 -45
-20 -27 3 -32 9 -15 20 11 7 7 10 -17 11 -41 2 -45 3 -59 11 -6 4 -24 4 -40
-1 l-29 -8 34 -17 c23 -12 30 -21 23 -28 -8 -8 -16 -6 -28 6 -9 10 -23 15 -30
12 -8 -3 -14 -2 -14 2 0 5 -26 6 -58 4 -65 -5 -175 14 -166 29 7 12 -18 37
-34 31 -6 -2 -12 3 -12 12 0 25 28 19 46 -9 13 -19 20 -23 30 -14 7 6 10 17 7
25 -7 19 26 18 51 -1 28 -21 34 -19 32 10 -1 24 -30 44 -43 31 -3 -3 -21 1
-40 9 -18 8 -41 11 -51 8 -15 -6 -15 -5 -3 10 7 9 25 17 40 17 34 1 74 23 77
44 3 19 -1 20 -27 6 -13 -7 -25 -8 -37 -1 -9 6 -13 11 -8 11 13 0 -15 30 -29
30 -16 0 -14 -38 4 -49 15 -10 8 -15 -31 -25 -17 -4 -28 -2 -28 4 0 5 -9 10
-19 10 -10 0 -21 7 -25 15 -4 12 3 15 33 15 33 0 38 3 34 18 -6 25 33 60 49
44 21 -21 48 -14 48 12 0 26 -22 50 -35 38 -5 -4 -5 1 -2 11 4 9 2 17 -3 17
-6 0 -10 4 -10 9 0 5 8 7 19 4 20 -5 51 21 51 43 0 8 4 12 10 9 5 -3 7 0 5 8
-4 10 7 13 44 14 59 2 102 22 130 62 26 36 26 67 1 109 -22 36 -49 41 -75 12
-12 -14 -25 -17 -45 -13 -22 4 -29 1 -34 -15 -4 -10 -4 -26 0 -35 3 -10 -2
-20 -16 -27 -20 -10 -21 -10 -16 8 5 14 -1 26 -20 41 -33 26 -45 26 -75 2 -22
-17 -40 -16 -77 5 -8 4 12 34 24 34 8 0 14 5 14 10 0 6 -7 10 -15 10 -8 0 -15
6 -15 14 0 7 -7 19 -15 26 -8 7 -15 19 -15 26 0 8 6 11 15 8 8 -4 15 -13 15
-22 0 -13 2 -13 18 2 9 10 31 26 48 36 23 13 33 28 37 52 6 38 -2 49 -35 54
-13 2 -37 7 -54 10 -26 5 -35 1 -53 -22 -15 -19 -21 -38 -19 -55 4 -27 4 -27
-19 -11 -12 10 -23 23 -23 30 0 18 -10 15 -37 -15 -19 -19 -24 -34 -20 -57 2
-17 -1 -36 -8 -43 -7 -6 -16 -34 -19 -60 -11 -76 -15 -86 -32 -72 -18 15 -18
36 2 47 18 10 36 79 23 88 -5 3 -9 0 -9 -7 0 -9 -3 -9 -14 0 -8 7 -27 11 -43
9 -43 -5 -73 34 -73 95 0 40 -5 54 -29 78 -16 16 -37 29 -46 29 -9 0 -27 12
-40 26 -16 17 -30 24 -41 20 -14 -6 -15 -9 -2 -29 8 -12 30 -30 49 -39 36 -19
47 -37 48 -78 1 -20 -1 -22 -9 -10 -9 15 -11 13 -14 -11 0 -7 -9 -15 -19 -18
-10 -4 -18 -10 -18 -14 1 -4 -2 -7 -6 -8 -5 0 -16 -8 -25 -16 -10 -9 -18 -11
-18 -5 0 6 6 13 13 15 7 4 3 8 -10 12 -13 4 -20 12 -16 19 4 6 -1 5 -10 -2
-22 -18 -33 -9 -42 34 l-6 36 -20 -21 c-25 -27 -21 -55 9 -59 16 -2 22 -8 18
-18 -7 -17 20 -19 28 -1 3 6 4 0 1 -15 -3 -17 -1 -28 6 -28 6 0 9 -6 6 -12 -2
-7 -11 -12 -21 -10 -20 4 -21 -12 -1 -31 13 -13 13 -16 0 -21 -8 -3 -15 -2
-15 3 0 5 -12 12 -26 15 -22 6 -25 11 -19 34 12 47 9 62 -10 62 -8 0 -15 4
-15 8 0 5 -14 6 -31 4 -29 -4 -30 -3 -20 16 15 28 14 42 -4 42 -8 0 -15 -4
-15 -10 0 -16 -43 -50 -63 -50 -16 0 -17 3 -8 14 10 12 8 13 -8 9 -13 -3 -21
-14 -21 -26 0 -13 -4 -17 -9 -12 -5 6 -12 53 -16 105 -10 158 -18 116 -13 -70
3 -96 3 -167 1 -157 -3 9 -9 17 -14 17 -6 0 -8 -4 -5 -9 3 -4 0 -15 -7 -24 -9
-13 -21 -15 -50 -10 -33 5 -38 9 -33 27 3 12 6 27 6 34 0 6 8 12 18 13 9 0 12
3 6 5 -7 3 -10 13 -7 23 3 10 0 22 -6 25 -10 7 -16 -7 -12 -28 2 -10 -19 -36
-30 -36 -4 0 -11 9 -14 20 -4 11 -15 20 -26 20 -16 0 -19 -4 -14 -20 4 -12 1
-27 -5 -35 -6 -8 -9 -18 -6 -23 3 -5 -4 -23 -17 -38 l-22 -29 28 18 c24 15 27
16 27 2 0 -9 5 -13 10 -10 6 4 7 11 4 17 -5 7 -2 9 8 5 9 -3 20 -1 26 5 7 7
17 4 32 -10 14 -13 18 -22 11 -27 -6 -3 -11 0 -11 7 0 10 -2 10 -9 -1 -6 -9
-11 -10 -15 -2 -10 16 -26 13 -26 -5 0 -12 -7 -14 -30 -10 -16 3 -44 9 -61 12
-28 6 -30 4 -20 -14 14 -27 14 -32 -3 -32 -7 0 -21 10 -29 23 -13 18 -16 19
-16 5 -1 -10 4 -18 10 -18 5 0 7 -5 4 -10 -5 -8 -11 -7 -21 1 -7 6 -11 16 -8
21 4 6 -2 8 -15 3 -15 -5 -21 -2 -21 9 0 9 6 16 13 16 8 1 7 5 -4 13 -9 7 -14
18 -11 26 3 8 0 11 -6 7 -6 -3 -17 -3 -26 0 -13 5 -14 10 -5 20 6 7 8 18 4 24
-7 12 24 120 34 120 4 0 7 12 8 28 2 21 -4 15 -25 -29 -15 -31 -28 -64 -29
-75 -5 -62 -40 -92 -72 -61 -9 7 -11 7 -8 1 4 -7 0 -14 -8 -18 -18 -6 -45 30
-45 61 0 36 -21 39 -47 7 -30 -37 -26 -59 10 -60 16 -1 40 -12 54 -27 l26 -26
-49 1 c-135 2 -175 -10 -160 -48 4 -9 1 -23 -5 -30 -15 -18 -1 -37 23 -31 22
6 42 -33 33 -64 -4 -12 -1 -19 7 -19 10 0 15 -18 16 -66 3 -70 -14 -128 -35
-119 -15 5 -17 -11 -3 -20 16 -10 12 -28 -5 -21 -8 3 -15 1 -15 -4 0 -15 -26
-12 -39 4 -10 11 -8 16 8 21 21 6 25 16 21 45 -2 21 -29 40 -46 33 -17 -6 -19
24 -3 64 18 45 21 93 7 94 -47 4 -78 -12 -78 -42 0 -19 -11 -25 -22 -13 -10 9
51 92 72 99 11 4 20 10 20 15 0 5 7 16 17 25 15 16 14 18 -13 41 -36 29 -54
30 -88 3 -14 -11 -26 -17 -27 -12 0 4 -2 19 -5 32 -2 13 1 29 7 37 5 7 11 28
11 46 1 43 43 101 67 93 32 -10 51 5 51 39 0 18 -5 37 -12 44 -17 17 -57 15
-64 -3 -6 -15 -54 -22 -54 -7 0 17 49 62 67 62 12 0 27 9 34 20 8 11 28 23 46
26 27 5 32 3 35 -17 2 -16 11 -25 26 -27 21 -3 27 6 23 36 -3 18 10 15 58 -18
30 -20 51 -28 65 -24 61 17 76 109 23 147 l-27 21 -45 -22 c-24 -12 -73 -27
-109 -33 -56 -11 -66 -10 -80 4 -18 18 -46 13 -46 -8 0 -16 -27 -23 -115 -31
-64 -6 -78 -4 -150 26 -74 29 -85 31 -145 24 -80 -10 -290 -7 -389 6 -93 13
-125 28 -129 60 -9 92 -15 114 -37 136 -28 28 -34 29 -63 8z m1048 -303 c0 -5
-7 -11 -15 -15 -15 -5 -20 5 -8 17 9 10 23 9 23 -2z m1185 -181 c-3 -5 -16
-10 -28 -10 -18 0 -19 2 -7 10 20 13 43 13 35 0z m-68 -57 c-9 -9 -20 -13 -24
-9 -4 4 -1 11 7 16 25 16 35 11 17 -7z m131 -24 c11 0 12 -2 5 -6 -7 -2 -13
-12 -13 -22 0 -9 -14 -28 -31 -40 -28 -21 -33 -22 -47 -7 -9 8 -12 19 -8 23 5
5 11 2 13 -4 6 -18 23 -16 23 2 0 8 5 15 11 15 7 0 9 11 6 29 -6 29 14 53 21
24 2 -7 11 -13 20 -14z m-228 -14 c-7 -8 -20 -15 -28 -15 -13 0 -12 3 4 15 25
19 40 19 24 0z m320 -10 c7 -9 10 -18 7 -21 -10 -11 -37 5 -37 21 0 19 14 19
30 0z m116 -14 c-4 -5 -1 -11 6 -13 18 -6 0 -28 -24 -28 -14 0 -18 5 -14 16 3
9 6 20 6 25 0 5 7 9 16 9 8 0 13 -4 10 -9z m84 1 c0 -4 -16 -8 -35 -8 -19 0
-35 4 -35 8 0 4 16 8 35 8 19 0 35 -4 35 -8z m-338 -84 c-7 -7 -12 -8 -12 -2
0 6 3 14 7 17 3 4 9 5 12 2 2 -3 -1 -11 -7 -17z m-801 -41 c-10 -9 -11 -8 -5
6 3 10 9 15 12 12 3 -3 0 -11 -7 -18z m928 -54 c2 -1 -36 3 -59 6 -3 1 2 5 10
11 9 6 20 5 30 -3 8 -6 17 -12 19 -14z m234 13 c19 -14 22 -32 8 -41 -5 -3
-16 8 -24 25 -17 32 -12 37 16 16z m122 4 c3 -5 1 -10 -4 -10 -6 0 -11 5 -11
10 0 6 2 10 4 10 3 0 8 -4 11 -10z m-280 -9 c3 -5 -5 -13 -17 -16 -13 -4 -30
-14 -39 -21 -14 -13 -18 -12 -29 1 -11 13 -10 14 4 9 12 -5 19 0 23 15 6 22
46 30 58 12z m99 -23 c5 -10 7 -10 12 0 3 6 10 9 16 6 7 -4 6 -9 -2 -14 -9 -6
-7 -11 9 -20 18 -9 20 -14 10 -26 -9 -11 -8 -14 5 -14 9 0 16 -4 16 -10 0 -5
-7 -10 -15 -10 -8 0 -15 -4 -15 -10 0 -13 -47 -13 -55 1 -4 6 -1 10 6 8 31 -4
39 2 39 30 0 41 -15 47 -42 18 l-23 -25 2 37 c2 45 0 41 17 41 8 0 17 -6 20
-12z m-124 -18 c0 -5 -5 -10 -11 -10 -5 0 -7 5 -4 10 3 6 8 10 11 10 2 0 4 -4
4 -10z m-1590 -55 c0 -21 -5 -25 -30 -25 -16 0 -30 3 -30 6 0 12 29 34 58 43
1 1 2 -10 2 -24z m1650 -18 c0 -14 -20 -37 -32 -37 -12 0 -10 19 5 35 15 18
27 19 27 2z m119 -43 c2 -2 -1 -10 -7 -17 -7 -8 -8 -18 -4 -23 4 -4 -1 -2 -11
6 -10 7 -23 22 -28 32 -9 17 -7 18 18 12 15 -4 30 -8 32 -10z m-3181 -116 c13
-4 51 -34 84 -66 71 -67 218 -247 218 -266 0 -25 -25 -37 -54 -26 -15 5 -38
10 -52 10 -27 0 -99 33 -110 51 -4 7 3 19 16 29 14 11 19 20 12 24 -6 3 -15
-1 -20 -10 -6 -10 -16 -15 -26 -11 -20 8 -21 37 -2 37 7 0 20 8 27 17 12 15
12 16 -6 9 -54 -22 -52 -24 -110 99 -30 64 -55 119 -55 121 0 5 44 -5 78 -18z
m240 -115 c-2 -10 -10 -18 -18 -18 -8 0 -16 8 -18 18 -2 12 3 17 18 17 15 0
20 -5 18 -17z m3277 -33 c4 -6 -14 -10 -47 -9 -45 1 -49 3 -23 9 44 11 63 11
70 0z m-3241 -9 c3 -5 -1 -11 -9 -15 -15 -6 -29 7 -18 18 9 9 21 8 27 -3z
m3231 -21 c12 -20 -3 -23 -72 -14 -55 6 -62 9 -38 14 55 11 103 11 110 0z
m132 -25 l28 -25 -28 -25 c-17 -15 -34 -22 -44 -18 -9 4 -21 -1 -29 -12 -8
-10 -14 -15 -14 -9 0 5 -4 3 -8 -3 -5 -7 -40 -15 -86 -18 -50 -3 -75 -1 -71 5
3 6 1 10 -4 10 -6 0 -11 5 -11 10 0 6 7 10 15 10 8 0 19 9 25 20 9 16 8 22 -5
26 -8 4 -22 1 -30 -6 -12 -10 -15 -10 -15 3 0 21 12 23 115 26 65 1 93 6 100
17 14 20 30 18 62 -11z m-2690 -27 c-3 -7 -5 -2 -5 12 0 14 2 19 5 13 2 -7 2
-19 0 -25z m-1070 -26 c72 -30 133 -71 133 -91 0 -24 20 -41 48 -41 18 0 23
-4 18 -16 -5 -14 -4 -15 8 -5 11 9 20 5 45 -18 18 -17 35 -30 39 -30 3 0 8 -5
10 -11 5 -13 -29 -10 -39 3 -3 5 -9 2 -12 -7 -5 -11 1 -17 21 -22 15 -3 31 -7
36 -8 5 -1 -3 -10 -17 -19 -23 -15 -28 -15 -41 -2 -19 19 -56 19 -84 -1 -43
-30 -14 -84 45 -84 30 0 34 -2 28 -21 -5 -14 0 -29 17 -46 19 -22 20 -25 5
-20 -10 4 -25 7 -32 7 -7 0 -12 8 -11 18 1 12 -7 17 -26 18 -16 1 -43 16 -67
37 -22 20 -58 45 -81 57 -22 11 -40 24 -40 28 0 4 -17 18 -38 32 -20 13 -52
36 -71 49 -18 14 -43 27 -54 28 -12 2 -30 11 -40 21 -19 16 -19 16 -13 -5 5
-17 3 -23 -8 -23 -8 0 -22 -3 -32 -7 -13 -5 -16 -3 -11 10 7 18 -8 32 -34 32
-9 0 -38 19 -65 42 -27 23 -62 53 -79 66 l-29 25 32 7 c21 4 38 2 48 -6 12
-10 15 -10 12 2 -4 20 61 28 207 25 95 -2 131 -7 172 -24z m943 -117 c0 -20
-5 -25 -26 -25 -21 0 -24 -3 -15 -14 9 -10 8 -15 -4 -20 -8 -3 -15 -12 -15
-19 0 -20 -30 -45 -31 -26 0 8 -5 5 -11 -7 -13 -28 -74 -48 -82 -27 -3 8 0 23
7 33 15 21 110 88 145 101 12 5 22 13 22 19 0 5 2 10 5 10 3 0 5 -11 5 -25z
m2639 1 c0 -6 -4 -20 -8 -31 -8 -19 -8 -19 -15 3 -8 23 -28 32 -23 10 3 -17
-35 -17 -40 -1 -5 14 55 42 75 35 6 -2 12 -9 11 -16z m-2453 -15 c-12 -19 -24
-12 -19 10 4 13 9 17 15 11 6 -6 7 -15 4 -21z m2308 -45 c17 -9 27 -16 21 -16
-21 -1 -105 45 -105 58 0 7 -4 11 -9 7 -5 -3 -12 -1 -15 4 -4 5 5 8 19 6 14
-1 25 3 26 9 0 6 7 -3 16 -21 9 -18 30 -39 47 -47z m-2686 -46 c-13 -20 -28
-27 -28 -12 0 10 22 32 32 32 5 0 3 -9 -4 -20z m-424 -6 c3 -8 2 -12 -4 -9 -6
3 -10 10 -10 16 0 14 7 11 14 -7z m3379 -4 c20 -7 17 -10 -28 -30 -33 -15 -50
-19 -53 -11 -5 14 -32 15 -32 1 0 -5 6 -10 13 -11 6 0 3 -4 -8 -9 -28 -12 -77
-12 -95 1 -11 8 -4 9 28 7 37 -3 42 -1 42 18 0 12 -10 26 -22 32 -22 11 -21
11 5 6 15 -4 27 -2 27 4 0 11 88 6 123 -8z m-3727 -37 c-7 -7 -46 16 -46 28 0
5 11 2 25 -7 14 -9 24 -19 21 -21z m3543 16 c-17 -11 -39 -12 -39 -1 0 4 12 8
27 9 19 1 22 -1 12 -8z m-3436 -139 c71 -67 77 -95 8 -41 -43 34 -61 40 -40
14 8 -9 -12 3 -44 26 -32 24 -55 46 -53 49 3 2 21 -9 41 -27 20 -17 39 -31 43
-31 8 1 -36 38 -83 73 -21 15 -26 16 -16 4 20 -26 3 -20 -33 10 -17 15 -23 24
-13 20 11 -4 16 -3 12 4 -4 5 -4 17 -1 25 7 18 82 -34 179 -126z m3324 108
c-3 -8 -6 -5 -6 6 -1 11 2 17 5 13 3 -3 4 -12 1 -19z m-2480 -20 c-3 -8 -6 -5
-6 6 -1 11 2 17 5 13 3 -3 4 -12 1 -19z m2520 16 c-3 -3 -12 -4 -19 -1 -8 3
-5 6 6 6 11 1 17 -2 13 -5z m-57 -14 c0 -5 -4 -10 -10 -10 -5 0 -10 5 -10 10
0 6 5 10 10 10 6 0 10 -4 10 -10z m-3410 -116 c170 -138 172 -154 3 -21 -35
26 -67 46 -72 43 -5 -3 -14 1 -21 9 -7 8 -17 12 -24 8 -6 -3 -8 -2 -4 2 5 5
-6 21 -24 37 -29 26 -30 28 -9 28 13 0 73 -42 151 -106z m3495 -65 c-5 -22 -3
-34 6 -40 10 -6 8 -9 -8 -9 -23 0 -39 15 -25 24 5 3 7 17 4 31 -3 19 0 25 13
25 13 0 15 -6 10 -31z m-3125 5 c0 -3 -6 -11 -13 -19 -11 -11 -16 -10 -25 6
-11 17 -9 19 13 19 14 0 25 -3 25 -6z m3125 -74 c3 -6 17 -7 31 -4 14 4 24 2
24 -5 0 -6 -8 -12 -17 -13 -10 0 -22 -2 -28 -3 -5 -2 -18 -3 -29 -4 -15 -1
-16 -4 -6 -16 10 -12 9 -15 -7 -15 -28 0 -33 8 -21 41 10 29 40 40 53 19z
m142 -20 c-14 -20 -15 -20 -20 -1 -3 13 1 21 12 24 23 5 25 1 8 -23z m-247 10
c0 -5 -2 -10 -4 -10 -3 0 -8 5 -11 10 -3 6 -1 10 4 10 6 0 11 -4 11 -10z m210
-10 c0 -5 -2 -10 -4 -10 -3 0 -8 5 -11 10 -3 6 -1 10 4 10 6 0 11 -4 11 -10z
m193 -67 c-10 -3 -9 -8 2 -20 18 -18 20 -43 3 -43 -7 0 -24 9 -37 19 -21 16
-22 20 -10 34 8 9 23 16 34 16 11 0 14 -3 8 -6z m57 -13 c0 -5 -10 -10 -22 -9
-22 0 -22 1 -3 9 11 5 21 9 23 9 1 1 2 -3 2 -9z m-3670 -138 l23 -18 -25 -27
c-24 -26 -26 -26 -42 -9 -27 31 -19 67 15 71 4 1 17 -7 29 -17z m-275 -108
c20 -8 35 -18 32 -21 -8 -8 -77 17 -77 28 0 12 1 12 45 -7z m3972 -80 c-3 -3
-12 -4 -19 -1 -8 3 -5 6 6 6 11 1 17 -2 13 -5z m58 -34 c14 -6 5 -9 -35 -9
-30 0 -62 4 -70 9 -19 12 76 12 105 0z m-3665 -80 c0 -5 -4 -10 -9 -10 -6 0
-13 5 -16 10 -3 6 1 10 9 10 9 0 16 -4 16 -10z m10 -35 c0 -8 -2 -15 -4 -15
-2 0 -6 7 -10 15 -3 8 -1 15 4 15 6 0 10 -7 10 -15z m3600 -5 c0 -5 -7 -10
-16 -10 -8 0 -12 5 -9 10 3 6 10 10 16 10 5 0 9 -4 9 -10z m-3684 -42 c4 -6 2
-14 -4 -16 -6 -2 -8 -10 -5 -19 5 -12 1 -14 -17 -8 -16 5 -21 3 -18 -6 2 -7
14 -13 26 -14 29 -2 54 -25 28 -25 -15 0 -16 -3 -6 -15 16 -19 50 -20 50 -1 0
8 -5 16 -11 18 -12 4 -1 38 13 38 6 0 5 -6 -2 -15 -10 -12 -10 -15 4 -15 9 0
16 -6 16 -14 0 -20 -30 -42 -52 -38 -11 2 -26 -2 -34 -9 -20 -16 -37 1 -36 38
0 35 -8 49 -18 32 -7 -10 -11 -10 -24 0 -20 17 -20 31 0 31 9 0 12 5 8 13 -5
8 -2 7 9 -2 16 -12 20 -11 37 6 10 12 16 24 13 27 -4 3 -1 6 5 6 6 0 14 -5 18
-12z m3785 -38 c64 -33 69 -50 15 -50 -49 0 -100 12 -86 20 24 15 -18 39 -58
34 -35 -5 -36 -5 -18 10 30 24 80 19 147 -14z m-3902 -34 c8 -10 8 -16 -3 -25
-11 -9 -15 -8 -20 5 -13 34 1 47 23 20z m231 4 c0 -5 -2 -10 -4 -10 -3 0 -8 5
-11 10 -3 6 -1 10 4 10 6 0 11 -4 11 -10z m3554 -49 c17 -7 17 -9 -7 -37 -21
-23 -26 -25 -27 -11 0 9 -7 17 -16 17 -11 0 -14 -5 -10 -16 7 -18 -19 -54 -39
-54 -7 0 -26 -7 -43 -16 -39 -19 -65 -12 -80 21 -13 29 4 47 22 24 7 -10 27
-14 61 -13 67 3 65 2 59 18 -5 13 41 77 54 75 4 0 15 -4 26 -8z m-3823 -58
c-10 -17 -10 -17 -11 1 0 12 -5 16 -15 12 -23 -8 -18 11 8 29 21 15 22 14 25
-4 2 -11 -1 -28 -7 -38z m89 32 c0 -10 -5 -11 -25 -2 -32 15 -32 26 0 19 14
-2 25 -10 25 -17z m-10 -35 c0 -5 -7 -10 -15 -10 -8 0 -15 5 -15 10 0 6 7 10
15 10 8 0 15 -4 15 -10z m-40 -29 c0 -3 -16 -15 -35 -25 -26 -14 -34 -24 -29
-38 4 -13 1 -16 -11 -12 -9 4 -14 12 -12 18 2 6 1 22 -3 36 -7 24 -5 25 41 27
27 0 49 -2 49 -6z m3499 -15 c9 -10 9 -16 1 -21 -16 -10 -40 2 -40 20 0 19 24
20 39 1z m-3556 -78 c15 -7 25 -18 23 -25 -3 -7 1 -10 8 -7 9 3 13 -5 13 -26
0 -18 6 -36 13 -40 12 -7 12 -13 1 -33 -7 -14 -10 -30 -7 -36 9 -15 -7 -14
-22 1 -7 7 -8 17 -1 30 7 12 6 25 -3 41 -7 12 -12 28 -13 36 0 17 -45 49 -45
32 0 -6 5 -11 12 -11 8 0 7 -6 -4 -16 -9 -9 -21 -13 -27 -10 -14 9 -14 36 -1
36 6 0 10 9 10 20 0 23 6 24 43 8z m192 -38 c-3 -5 -12 -10 -18 -10 -7 0 -6 4
3 10 19 12 23 12 15 0z m3420 -29 c-3 -6 -11 -11 -17 -11 -6 0 -6 6 2 15 14
17 26 13 15 -4z m-3485 -11 c0 -13 -6 -20 -17 -19 -11 0 -13 3 -5 6 6 2 12 11
12 19 0 8 2 14 5 14 3 0 5 -9 5 -20z m3360 -6 c0 -8 -4 -12 -10 -9 -5 3 -10
10 -10 16 0 5 5 9 10 9 6 0 10 -7 10 -16z m-3467 -17 c3 -8 -1 -14 -9 -14 -15
0 -18 9 -7 20 9 9 10 9 16 -6z m3477 -27 c0 -5 -9 -10 -20 -10 -11 0 -20 5
-20 10 0 6 9 10 20 10 11 0 20 -4 20 -10z m-3400 -4 c0 -2 -7 -9 -15 -16 -13
-11 -14 -10 -9 4 5 14 24 23 24 12z m65 -46 c-3 -5 -12 -10 -18 -10 -7 0 -6 4
3 10 19 12 23 12 15 0z m3245 -40 c0 -5 -4 -10 -9 -10 -6 0 -13 5 -16 10 -3 6
1 10 9 10 9 0 16 -4 16 -10z m175 -30 c4 -6 -5 -10 -20 -10 -15 0 -24 4 -20
10 3 6 12 10 20 10 8 0 17 -4 20 -10z m-3295 -14 c0 -3 -4 -8 -10 -11 -5 -3
-10 -1 -10 4 0 6 5 11 10 11 6 0 10 -2 10 -4z m-215 -16 c3 -5 2 -10 -4 -10
-5 0 -13 5 -16 10 -3 6 -2 10 4 10 5 0 13 -4 16 -10z m169 -6 c4 -10 1 -14 -6
-12 -15 5 -23 28 -10 28 5 0 13 -7 16 -16z m3186 -5 c13 -9 13 -10 -2 -6 -9 3
-18 1 -20 -5 -3 -7 -12 -9 -24 -4 -19 8 -19 8 1 16 27 11 28 11 45 -1z m66
-17 c-4 -3 -14 2 -24 12 -16 18 -16 18 6 6 13 -6 21 -14 18 -18z m-3346 -79
c0 -12 -2 -12 -15 1 -8 8 -15 17 -15 20 0 3 7 3 15 0 8 -4 15 -13 15 -21z
m3731 12 c0 -6 -10 -12 -23 -13 -19 -4 -20 -2 -9 12 15 17 33 18 32 1z m-3844
-28 c-2 -7 -11 -11 -21 -9 -19 3 -20 -2 -6 -28 7 -13 7 -21 0 -25 -6 -4 -8
-11 -5 -16 4 -5 1 -9 -5 -9 -7 0 -9 8 -5 20 5 15 2 20 -12 21 -10 0 -13 3 -5
6 6 2 12 13 12 22 0 22 4 26 30 28 13 1 20 -3 17 -10z m38 3 c3 -5 1 -10 -4
-10 -6 0 -11 5 -11 10 0 6 2 10 4 10 3 0 8 -4 11 -10z m-119 -45 c-14 -14 -31
-23 -37 -20 -6 4 3 17 23 30 42 29 48 24 14 -10z m116 18 c-6 -2 -9 -10 -6
-15 4 -7 2 -8 -5 -4 -13 9 -5 26 12 25 9 0 8 -2 -1 -6z m3268 -12 c16 -31 12
-36 -9 -12 -11 13 -24 20 -28 18 -5 -3 -15 -2 -23 4 -11 6 -6 9 17 9 22 0 36
-6 43 -19z m-3234 -17 c-11 -7 -22 -12 -25 -9 -2 3 4 12 15 19 10 8 21 12 24
9 3 -2 -4 -11 -14 -19z m74 5 c0 -6 9 -9 20 -6 22 6 23 5 14 -17 -3 -8 -11
-13 -17 -10 -7 2 -20 -9 -29 -26 -14 -24 -14 -30 -3 -30 7 0 20 -3 29 -6 9 -3
16 -1 16 6 0 6 -4 9 -9 6 -5 -3 -11 1 -15 9 -8 22 7 25 31 6 32 -27 34 -70 2
-93 -26 -20 -99 -41 -99 -29 0 4 9 14 19 23 13 11 18 24 14 38 -5 19 -3 21 17
15 14 -4 20 -3 16 3 -8 14 -45 22 -52 11 -6 -11 -24 -2 -24 11 0 5 6 7 13 4
16 -6 40 56 31 80 -4 11 -1 16 10 16 9 0 16 -5 16 -11z m240 -31 c0 -11 -35
-5 -36 7 -1 6 1 16 4 24 4 11 8 10 19 -5 7 -10 13 -21 13 -26z m2895 -8 c0
-29 4 -36 23 -38 13 -2 29 2 37 8 10 8 15 8 20 0 14 -22 -10 -31 -56 -21 -24
6 -55 10 -69 10 -20 0 -17 -3 13 -12 21 -7 38 -15 37 -20 -3 -17 13 -72 24
-80 7 -5 3 -7 -9 -4 -11 2 -19 9 -17 18 2 8 0 11 -4 7 -4 -4 -14 -2 -22 5 -12
9 -16 9 -19 0 -5 -15 -23 -17 -23 -3 0 5 12 16 28 24 24 13 25 15 9 22 -10 3
-29 1 -42 -6 -20 -11 -27 -11 -40 0 -14 12 -14 15 1 31 19 21 11 39 -17 39
-10 0 -19 5 -19 11 0 7 9 9 23 5 47 -14 66 -16 89 -7 20 8 21 10 6 16 -27 11
-23 37 5 33 18 -2 22 -9 22 -38z m450 30 c3 -5 11 -10 16 -10 6 0 7 5 3 11 -4
7 -1 10 7 7 8 -2 15 -17 17 -31 3 -24 0 -27 -28 -27 -17 0 -29 4 -26 9 3 5 0
9 -7 8 -33 -1 -47 4 -47 17 0 8 10 17 23 19 12 2 25 5 29 6 4 0 10 -3 13 -9z
m-305 -32 c0 -7 -5 -20 -10 -28 -8 -12 -10 -9 -10 13 0 15 5 27 10 27 6 0 10
-6 10 -12z m-3145 -18 c3 -5 -1 -10 -9 -10 -9 0 -16 5 -16 10 0 6 4 10 9 10 6
0 13 -4 16 -10z m3215 0 c0 -5 -2 -10 -4 -10 -3 0 -8 5 -11 10 -3 6 -1 10 4
10 6 0 11 -4 11 -10z m325 -20 c10 -20 12 -30 4 -30 -6 0 -9 -6 -6 -14 4 -11
-3 -14 -31 -12 -43 2 -85 23 -77 37 4 6 13 5 25 -1 25 -13 43 -13 35 1 -4 6 2
13 14 16 17 4 19 8 10 19 -8 10 -8 14 0 14 6 0 17 -13 26 -30z m-174 -11 c-25
-24 -26 -24 -27 4 -1 20 2 23 23 19 24 -5 24 -5 4 -23z m-36 -36 c11 -7 30
-13 43 -13 33 0 22 -25 -11 -25 -14 -1 -24 2 -22 5 2 3 -5 12 -17 19 -11 7
-17 8 -14 3 3 -5 -4 -12 -17 -16 -15 -4 -18 -9 -10 -14 7 -4 9 -13 4 -21 -7
-11 -10 -10 -15 5 -8 27 -7 39 3 39 5 0 13 3 17 8 4 4 0 7 -9 7 -17 0 -22 11
-11 23 7 7 31 -1 59 -20z m-227 -1 c2 -6 -1 -12 -8 -12 -6 0 -8 -4 -5 -10 8
-14 -8 -13 -37 3 -14 7 -23 18 -21 24 6 16 65 12 71 -5z m55 7 c7 0 3 -4 -8
-9 -29 -13 -35 -12 -35 6 0 11 5 14 16 10 9 -3 21 -6 27 -7z m301 -39 c10 0
15 -4 12 -9 -3 -4 -16 -8 -28 -7 -17 1 -24 8 -26 26 -2 23 -1 24 11 8 8 -10
22 -18 31 -18z m-276 -5 c-2 -1 -21 -5 -43 -9 l-40 -7 30 20 c22 15 32 17 42
9 8 -6 12 -12 11 -13z m-3103 -25 c-3 -5 0 -10 7 -10 7 0 3 -9 -10 -22 -28
-29 -49 -13 -26 20 15 21 42 32 29 12z m3148 -12 c8 -27 -1 -38 -13 -18 -7 10
-10 11 -10 3 0 -7 -10 -13 -22 -13 -22 1 -23 1 -4 15 15 11 16 15 5 16 -8 0
-6 4 6 9 30 13 32 12 38 -12z m-93 -2 c0 -3 -4 -8 -10 -11 -5 -3 -10 -1 -10 4
0 6 5 11 10 11 6 0 10 -2 10 -4z m176 -21 c14 -13 11 -15 -22 -15 -31 0 -35 2
-24 15 7 8 17 15 22 15 5 0 16 -7 24 -15z m94 -10 c0 -5 -13 -10 -30 -11 -33
-2 -32 -2 -24 19 6 17 53 10 54 -8z m-3576 -33 c3 -5 -6 -15 -19 -22 -19 -10
-22 -16 -14 -27 15 -18 71 -14 64 5 -9 24 5 33 28 17 27 -19 37 -19 37 0 0 8
4 15 10 15 5 0 6 -7 3 -17 -4 -11 -3 -14 5 -9 7 4 34 9 60 11 36 4 43 2 29 -6
-9 -6 -15 -14 -12 -19 3 -5 0 -12 -6 -16 -8 -4 -9 -3 -5 4 4 7 2 12 -3 12 -6
0 -11 -9 -11 -20 0 -13 -6 -20 -17 -19 -11 0 -13 3 -5 6 17 7 15 23 -3 23 -8
0 -15 -6 -15 -13 0 -7 -18 -23 -40 -37 -39 -24 -57 -59 -24 -46 12 5 15 2 10
-10 -3 -8 -6 -21 -6 -27 0 -8 -3 -8 -8 -2 -4 6 -16 15 -27 21 -21 12 -23 25
-9 59 7 17 6 18 -8 7 -19 -15 -48 -6 -48 16 0 8 -3 12 -7 9 -3 -4 -12 2 -20
13 -18 26 -43 26 -43 1 0 -26 -16 -35 -37 -21 -13 7 -14 10 -3 8 8 -2 15 2 15
7 0 6 -7 9 -16 8 -12 -2 -16 3 -12 18 7 24 36 41 56 33 9 -3 28 1 44 10 32 17
50 20 57 8z m3296 -44 c22 1 23 0 7 -9 -10 -6 -26 -7 -35 -3 -9 4 -20 6 -24 6
-5 -1 -8 3 -8 9 0 7 7 8 18 4 9 -4 28 -7 42 -7z m100 -38 c0 -5 -4 -10 -9 -10
-6 0 -13 5 -16 10 -3 6 1 10 9 10 9 0 16 -4 16 -10z m66 -7 c11 -27 10 -46 -2
-50 -11 -4 -24 26 -24 55 0 18 17 15 26 -5z m66 -25 c-18 -18 -16 -59 3 -52 8
4 15 1 15 -5 0 -8 -11 -10 -34 -6 -20 4 -36 2 -40 -4 -10 -16 -26 -13 -26 5 0
8 3 13 8 10 10 -6 34 14 55 47 10 16 21 26 25 23 3 -4 0 -12 -6 -18z m75 7 c0
-10 -6 -14 -14 -10 -8 3 -19 5 -24 5 -6 0 -7 5 -4 10 10 16 42 12 42 -5z
m-3687 -35 c0 -5 -4 -10 -9 -10 -6 0 -13 5 -16 10 -3 6 1 10 9 10 9 0 16 -4
16 -10z m3255 -20 c22 -8 25 -14 17 -22 -9 -9 -15 -9 -24 0 -7 7 -20 12 -30
12 -18 0 -24 11 -12 23 4 4 10 4 14 2 4 -2 20 -9 35 -15z m-3310 0 c-3 -5 -10
-10 -16 -10 -5 0 -9 5 -9 10 0 6 7 10 16 10 8 0 12 -4 9 -10z m62 -16 c-3 -3
-12 -4 -19 -1 -8 3 -5 6 6 6 11 1 17 -2 13 -5z m-97 -45 c0 -6 -4 -7 -10 -4
-5 3 -10 11 -10 16 0 6 5 7 10 4 6 -3 10 -11 10 -16z m3204 -32 c-4 -12 -12
-26 -18 -30 -8 -6 -7 -10 2 -14 6 -2 9 -9 6 -15 -3 -5 -13 0 -21 12 -13 19
-13 24 -2 31 12 8 12 10 -1 18 -12 9 -12 13 5 29 16 16 21 17 28 5 5 -7 5 -23
1 -36z m76 43 c0 -5 -6 -10 -14 -10 -8 0 -18 5 -21 10 -3 6 3 10 14 10 12 0
21 -4 21 -10z m-2720 -15 c-7 -9 -15 -13 -19 -10 -3 3 1 10 9 15 21 14 24 12
10 -5z m2811 -7 c17 -10 23 -10 26 0 5 13 39 17 47 4 8 -14 -11 -35 -27 -29
-8 3 -19 1 -25 -5 -7 -7 -18 -4 -36 8 -41 31 -29 48 15 22z m-2985 -13 c14
-13 13 -15 -10 -15 -25 0 -33 10 -19 23 9 10 13 9 29 -8z m42 -53 c-8 -9 -8
-20 0 -37 12 -25 12 -25 -13 -9 -14 9 -32 13 -41 10 -17 -6 -44 9 -44 25 0 5
11 7 25 3 19 -5 25 -2 25 10 0 9 7 16 15 16 8 0 15 5 15 10 0 6 6 5 14 -2 10
-9 11 -17 4 -26z m-182 -3 c-30 -23 -26 -39 10 -39 13 0 24 -4 24 -9 0 -21
-22 -22 -55 -2 -20 11 -34 15 -32 9 1 -7 -4 -13 -10 -14 -26 -3 -28 -5 -14
-13 7 -5 10 -14 6 -21 -5 -8 -11 -4 -20 12 -10 19 -9 25 2 35 11 9 11 13 2 19
-9 5 -7 9 7 14 10 4 24 3 31 -2 8 -6 18 -3 30 10 10 11 24 21 32 21 7 1 2 -8
-13 -20z m3134 7 c0 -2 -11 -6 -25 -8 -14 -3 -25 -1 -25 3 0 5 11 9 25 9 14 0
25 -2 25 -4z m68 -18 c2 -10 -6 -19 -20 -23 -13 -4 -26 -13 -30 -19 -6 -8 -11
-6 -18 4 -12 18 -13 30 -2 29 42 -7 71 14 35 25 -11 3 -8 4 7 3 14 -1 26 -9
28 -19z m-2778 6 c0 -3 -7 -12 -15 -20 -8 -8 -19 -23 -24 -32 -5 -9 -12 -15
-15 -12 -7 7 34 70 45 70 5 0 9 -3 9 -6z m-140 -31 c3 -2 -4 -11 -14 -19 -17
-12 -18 -14 -3 -14 9 0 17 -7 17 -15 0 -15 -26 -20 -55 -9 -15 6 -14 8 1 25
14 16 15 21 3 35 -13 16 -11 17 16 10 16 -4 32 -10 35 -13z m190 9 c0 -13 -12
-22 -22 -16 -10 6 -1 24 13 24 5 0 9 -4 9 -8z m2413 -36 c-5 -25 -41 -42 -56
-27 -15 15 6 42 23 31 10 -7 11 -10 3 -10 -7 0 -13 -5 -13 -11 0 -8 5 -8 15 1
8 7 15 21 15 32 0 10 4 17 9 14 4 -3 6 -16 4 -30z m-3026 7 c-9 -9 -20 -13
-24 -9 -4 4 -1 11 7 16 25 16 35 11 17 -7z m228 3 c16 -8 22 -17 16 -21 -16
-10 -51 4 -51 21 0 17 1 17 35 0z m2983 -18 c4 -21 -24 -25 -31 -5 -3 9 -8 9
-21 -2 -9 -8 -15 -20 -12 -28 3 -7 -1 -13 -9 -13 -20 0 -19 29 2 52 21 23 66
20 71 -4z m-2688 -23 c-7 -9 -15 -13 -17 -11 -7 7 7 26 19 26 6 0 6 -6 -2 -15z
m-590 -25 c0 -5 -6 -10 -14 -10 -8 0 -18 5 -21 10 -3 6 3 10 14 10 12 0 21 -4
21 -10z m3301 -53 c-6 -8 -8 -17 -4 -21 4 -4 -1 -4 -11 0 -18 7 -18 8 0 21 23
17 30 17 15 0z m-900 -87 c10 0 19 -4 19 -10 0 -5 -9 -10 -19 -10 -18 0 -32
20 -30 43 1 7 3 4 6 -5 2 -10 13 -18 24 -18z m119 -31 c0 -5 -7 -9 -15 -9 -15
0 -20 12 -9 23 8 8 24 -1 24 -14z m435 11 c3 -6 -3 -22 -14 -36 -12 -15 -21
-33 -21 -41 0 -8 -4 -12 -9 -8 -11 6 -9 64 2 83 10 15 33 16 42 2z m-475 -22
c0 -11 -31 -10 -50 2 -10 6 -5 9 18 8 18 -1 32 -5 32 -10z m-1479 -51 c-1 -4
-1 -17 -1 -30 0 -16 -9 -27 -32 -37 -18 -7 -37 -15 -41 -18 -5 -2 -1 8 8 22
16 24 16 26 1 20 -11 -4 -16 -1 -16 10 0 9 8 19 18 22 9 3 24 9 32 14 17 10
32 8 31 -3z m126 -25 c14 -9 9 -120 -6 -135 -6 -6 -11 -24 -11 -39 0 -15 -4
-28 -10 -28 -5 0 -10 12 -10 28 0 18 -12 38 -35 61 -29 28 -32 35 -21 47 8 7
12 22 9 33 -6 22 22 35 53 25 16 -5 16 -4 4 5 -13 9 -13 11 0 11 8 0 20 -4 27
-8z m-371 -18 c-3 -9 -6 -20 -6 -25 0 -15 -17 -10 -24 8 -4 9 -1 20 6 25 21
12 31 9 24 -8z m474 0 c0 -8 -5 -12 -10 -9 -6 4 -8 11 -5 16 9 14 15 11 15 -7z
m515 6 c3 -5 1 -10 -4 -10 -6 0 -11 5 -11 10 0 6 2 10 4 10 3 0 8 -4 11 -10z
m-505 -51 c0 -6 -4 -7 -10 -4 -5 3 -10 11 -10 16 0 6 5 7 10 4 6 -3 10 -11 10
-16z m150 6 c0 -18 -34 -84 -41 -79 -5 3 -6 -1 -3 -9 10 -26 -15 -28 -31 -3
-9 13 -25 26 -35 29 -11 3 -20 13 -20 22 0 9 5 13 11 10 5 -4 28 -9 50 -11 36
-5 39 -3 39 21 0 16 6 25 15 25 8 0 15 -2 15 -5z m71 -5 c5 0 9 -4 9 -10 0
-16 -26 -12 -41 7 -12 15 -12 16 4 10 10 -4 23 -7 28 -7z m-441 -40 c0 -5 -4
-10 -10 -10 -5 0 -10 5 -10 10 0 6 5 10 10 10 6 0 10 -4 10 -10z m1260 -25 c0
-8 8 -15 19 -15 20 0 28 -23 38 -112 5 -53 -6 -62 -31 -26 -13 19 -14 25 -2
42 11 18 10 24 -4 39 -9 9 -30 17 -46 17 -17 0 -39 6 -50 14 -19 14 -19 15 0
22 12 5 21 3 24 -4 6 -20 19 -13 26 13 7 27 26 34 26 10z m-1468 -17 c-7 -7
-12 -8 -12 -2 0 14 12 26 19 19 2 -3 -1 -11 -7 -17z m762 7 c11 -8 31 -15 44
-15 14 0 22 -5 20 -12 -3 -7 -20 -13 -39 -13 -27 0 -33 4 -31 17 2 12 -2 16
-11 12 -8 -3 -14 2 -14 11 0 19 6 19 31 0z m-75 -46 c-26 -16 -120 -13 -131 4
-12 20 1 25 32 14 23 -9 35 -9 50 1 12 7 20 8 20 2 0 -5 5 -10 11 -10 6 0 8 9
4 23 -7 22 -7 22 10 -2 15 -19 15 -25 4 -32z m-394 -49 c3 -5 -1 -10 -10 -10
-9 0 -13 5 -10 10 3 6 8 10 10 10 2 0 7 -4 10 -10z"/>
<path d="M1167 4083 c-13 -12 -7 -23 11 -22 10 0 12 3 4 6 -6 2 -10 9 -6 14 6
10 0 12 -9 2z"/>
<path d="M1025 3810 c3 -5 11 -10 16 -10 6 0 7 5 4 10 -3 6 -11 10 -16 10 -6
0 -7 -4 -4 -10z"/>
<path d="M1050 3761 c0 -5 7 -12 16 -15 14 -5 15 -4 4 9 -14 17 -20 19 -20 6z"/>
<path d="M1040 1825 c0 -8 7 -15 16 -15 14 0 14 3 4 15 -7 8 -14 15 -16 15 -2
0 -4 -7 -4 -15z"/>
<path d="M1150 1830 c0 -5 4 -10 9 -10 6 0 13 5 16 10 3 6 -1 10 -9 10 -9 0
-16 -4 -16 -10z"/>
<path d="M3770 5360 c0 -5 5 -10 11 -10 5 0 7 5 4 10 -3 6 -8 10 -11 10 -2 0
-4 -4 -4 -10z"/>
<path d="M4260 5325 c0 -8 7 -15 15 -15 8 0 15 7 15 15 0 8 -7 15 -15 15 -8 0
-15 -7 -15 -15z"/>
<path d="M3790 5319 c0 -5 9 -9 20 -9 11 0 20 4 20 8 0 4 -9 8 -20 9 -11 1
-20 -2 -20 -8z"/>
<path d="M4060 5315 c0 -8 7 -15 15 -15 8 0 15 7 15 15 0 8 -7 15 -15 15 -8 0
-15 -7 -15 -15z"/>
<path d="M3779 5293 c-1 -4 -1 -11 0 -15 0 -4 -6 -5 -14 -2 -17 7 -21 -21 -5
-31 13 -8 62 25 57 39 -4 13 -36 21 -38 9z"/>
<path d="M4380 5245 c0 -20 5 -25 25 -25 20 0 25 5 25 25 0 20 -5 25 -25 25
-20 0 -25 -5 -25 -25z"/>
<path d="M2522 5248 c5 -15 28 -18 29 -3 0 6 -7 12 -17 13 -10 3 -15 -1 -12
-10z"/>
<path d="M2764 5249 c-10 -17 13 -36 27 -22 12 12 4 33 -11 33 -5 0 -12 -5
-16 -11z"/>
<path d="M4270 5244 c0 -8 5 -12 10 -9 6 3 10 10 10 16 0 5 -4 9 -10 9 -5 0
-10 -7 -10 -16z"/>
<path d="M2320 5235 c0 -8 7 -15 15 -15 8 0 15 7 15 15 0 8 -7 15 -15 15 -8 0
-15 -7 -15 -15z"/>
<path d="M4480 5220 c-6 -11 -8 -20 -6 -20 3 0 10 9 16 20 6 11 8 20 6 20 -3
0 -10 -9 -16 -20z"/>
<path d="M4496 5194 c-20 -20 -9 -44 20 -44 19 0 24 5 24 24 0 29 -24 40 -44
20z"/>
<path d="M3548 5169 c-20 -11 -12 -49 11 -49 18 0 69 36 61 43 -13 11 -57 15
-72 6z"/>
<path d="M2530 5160 c0 -5 5 -10 10 -10 6 0 10 5 10 10 0 6 -4 10 -10 10 -5 0
-10 -4 -10 -10z"/>
<path d="M4230 5156 c0 -8 4 -17 8 -20 13 -8 35 11 28 23 -10 16 -36 14 -36
-3z"/>
<path d="M4425 5149 c-10 -15 1 -23 20 -15 9 3 13 10 10 16 -8 13 -22 13 -30
-1z"/>
<path d="M4054 5096 c-8 -22 3 -33 18 -18 9 9 9 15 0 24 -9 9 -13 7 -18 -6z"/>
<path d="M4510 5099 c0 -5 5 -7 10 -4 6 3 10 8 10 11 0 2 -4 4 -10 4 -5 0 -10
-5 -10 -11z"/>
<path d="M4607 5103 c-14 -14 -6 -53 13 -63 38 -20 70 12 54 54 -6 16 -54 22
-67 9z"/>
<path d="M4110 5090 c0 -5 5 -10 10 -10 6 0 10 5 10 10 0 6 -4 10 -10 10 -5 0
-10 -4 -10 -10z"/>
<path d="M4820 5082 c0 -10 64 -67 84 -75 34 -13 23 12 -16 39 -64 44 -68 46
-68 36z"/>
<path d="M2685 5071 c-7 -12 12 -24 25 -16 11 7 4 25 -10 25 -5 0 -11 -4 -15
-9z"/>
<path d="M3966 5063 c-6 -14 -5 -15 5 -6 7 7 10 15 7 18 -3 3 -9 -2 -12 -12z"/>
<path d="M2876 5024 c-9 -8 -16 -22 -16 -29 0 -13 26 -45 36 -45 20 0 44 25
44 45 0 14 -8 29 -19 35 -25 13 -27 13 -45 -6z"/>
<path d="M2315 5020 c-8 -13 4 -32 16 -25 12 8 12 35 0 35 -6 0 -13 -4 -16
-10z"/>
<path d="M2375 5019 c-10 -15 3 -25 16 -12 7 7 7 13 1 17 -6 3 -14 1 -17 -5z"/>
<path d="M3743 5023 c-7 -3 -13 -9 -13 -14 0 -6 6 -9 13 -8 25 3 38 -1 32 -11
-3 -5 4 -10 16 -10 18 0 19 2 9 15 -7 8 -18 15 -25 15 -8 0 -15 4 -17 9 -1 4
-9 6 -15 4z"/>
<path d="M3983 5004 c-3 -8 -1 -20 5 -26 15 -15 43 8 35 28 -7 19 -32 18 -40
-2z"/>
<path d="M2750 5002 c0 -4 14 -16 30 -25 35 -21 39 -16 8 13 -23 21 -38 26
-38 12z"/>
<path d="M4760 4989 c0 -5 5 -7 10 -4 6 3 10 8 10 11 0 2 -4 4 -10 4 -5 0 -10
-5 -10 -11z"/>
<path d="M1043 4973 c4 -3 2 -12 -4 -19 -17 -21 22 -56 57 -52 60 6 33 78 -28
78 -17 0 -28 -3 -25 -7z"/>
<path d="M4379 4967 c-30 -15 -36 -52 -13 -78 23 -26 49 -24 72 6 11 14 27 25
36 25 22 0 31 27 16 45 -9 11 -17 12 -31 4 -12 -6 -25 -6 -37 0 -12 7 -26 6
-43 -2z"/>
<path d="M2145 4961 c-6 -11 9 -23 19 -14 9 9 7 23 -3 23 -6 0 -12 -4 -16 -9z"/>
<path d="M3280 4960 c0 -5 5 -10 11 -10 5 0 7 5 4 10 -3 6 -8 10 -11 10 -2 0
-4 -4 -4 -10z"/>
<path d="M1575 4950 c-3 -5 -1 -10 4 -10 6 0 11 5 11 10 0 6 -2 10 -4 10 -3 0
-8 -4 -11 -10z"/>
<path d="M1932 4941 c-23 -14 -10 -46 21 -49 21 -3 27 1 27 15 0 18 -17 43
-29 43 -4 0 -12 -4 -19 -9z"/>
<path d="M3680 4945 c0 -5 5 -17 10 -25 5 -8 10 -10 10 -5 0 6 -5 17 -10 25
-5 8 -10 11 -10 5z"/>
<path d="M1222 4927 c-12 -7 -20 -16 -16 -19 3 -4 -4 -4 -16 -1 -33 9 -21 -19
13 -31 22 -8 30 -6 42 10 15 20 20 54 8 54 -5 -1 -18 -6 -31 -13z"/>
<path d="M2245 4930 c-3 -5 0 -18 6 -29 11 -16 14 -17 27 -5 8 8 11 21 8 29
-6 17 -32 20 -41 5z"/>
<path d="M4560 4920 c0 -23 35 -28 43 -6 7 18 -1 26 -25 26 -11 0 -18 -7 -18
-20z"/>
<path d="M2728 4899 c-22 -16 -30 -18 -46 -8 -16 10 -25 9 -46 -4 -54 -36 -12
-113 48 -86 14 7 26 18 26 26 0 7 9 13 20 13 21 0 55 53 45 70 -9 14 -16 12
-47 -11z"/>
<path d="M2104 4896 c-9 -24 4 -48 23 -44 12 2 18 12 18 28 0 29 -32 41 -41
16z"/>
<path d="M2790 4900 c0 -5 5 -10 10 -10 6 0 10 5 10 10 0 6 -4 10 -10 10 -5 0
-10 -4 -10 -10z"/>
<path d="M2946 4887 c3 -10 9 -15 12 -12 3 3 0 11 -7 18 -10 9 -11 8 -5 -6z"/>
<path d="M4680 4885 c0 -10 7 -15 18 -13 21 4 19 22 -2 26 -10 2 -16 -3 -16
-13z"/>
<path d="M2322 4868 c6 -18 28 -21 28 -4 0 9 -7 16 -16 16 -9 0 -14 -5 -12
-12z"/>
<path d="M3395 4866 c-11 -8 -14 -15 -8 -19 6 -4 16 0 23 8 17 21 8 28 -15 11z"/>
<path d="M4315 4871 c-7 -12 12 -24 25 -16 11 7 4 25 -10 25 -5 0 -11 -4 -15
-9z"/>
<path d="M3095 4852 c11 -13 29 -28 40 -34 21 -11 18 -8 -30 32 -29 24 -29 24
-10 2z"/>
<path d="M1122 4840 c-18 -29 -15 -40 13 -40 21 0 24 4 22 30 -2 35 -17 39
-35 10z"/>
<path d="M4790 4850 c0 -5 5 -10 10 -10 6 0 10 5 10 10 0 6 -4 10 -10 10 -5 0
-10 -4 -10 -10z"/>
<path d="M4290 4829 c0 -5 5 -7 10 -4 6 3 10 8 10 11 0 2 -4 4 -10 4 -5 0 -10
-5 -10 -11z"/>
<path d="M4670 4820 c0 -13 7 -20 20 -20 13 0 20 7 20 20 0 13 -7 20 -20 20
-13 0 -20 -7 -20 -20z"/>
<path d="M1189 4808 c-10 -18 -9 -20 6 -15 9 4 19 7 21 7 2 0 4 7 4 15 0 22
-18 18 -31 -7z"/>
<path d="M1306 4811 c-3 -5 1 -14 9 -21 12 -10 15 -10 15 3 0 19 -16 31 -24
18z"/>
<path d="M2575 4790 c-3 -6 1 -13 10 -16 19 -8 30 0 20 15 -8 14 -22 14 -30 1z"/>
<path d="M1905 4780 c-4 -6 -3 -16 3 -22 6 -6 12 -6 17 2 4 6 3 16 -3 22 -6 6
-12 6 -17 -2z"/>
<path d="M4765 4780 c3 -5 10 -10 16 -10 5 0 9 5 9 10 0 6 -7 10 -16 10 -8 0
-12 -4 -9 -10z"/>
<path d="M2025 4770 c-3 -5 -1 -10 4 -10 6 0 11 5 11 10 0 6 -2 10 -4 10 -3 0
-8 -4 -11 -10z"/>
<path d="M4714 4756 c-9 -24 4 -48 23 -44 12 2 18 12 18 28 0 29 -32 41 -41
16z"/>
<path d="M2085 4741 c-6 -11 9 -23 19 -14 9 9 7 23 -3 23 -6 0 -12 -4 -16 -9z"/>
<path d="M2160 4694 c0 -44 -23 -65 -62 -57 -25 5 -28 3 -28 -21 0 -14 -5 -26
-12 -26 -22 0 1 -12 29 -15 15 -1 40 -7 54 -13 20 -8 36 -7 65 3 22 8 34 14
29 15 -6 0 -15 16 -21 35 -9 28 -8 37 2 46 19 16 18 25 -8 49 -33 30 -48 25
-48 -16z"/>
<path d="M2271 4720 c-20 -12 -8 -45 17 -48 18 -3 22 1 22 21 0 27 -19 40 -39
27z"/>
<path d="M1800 4699 c0 -5 5 -7 10 -4 6 3 10 8 10 11 0 2 -4 4 -10 4 -5 0 -10
-5 -10 -11z"/>
<path d="M4553 4653 c-15 -3 -23 -12 -23 -24 0 -14 7 -19 30 -19 20 0 30 5 30
15 0 8 -5 15 -11 15 -5 0 -7 5 -4 10 3 6 5 9 3 9 -2 -1 -13 -4 -25 -6z"/>
<path d="M2270 4629 c0 -5 5 -7 10 -4 6 3 10 8 10 11 0 2 -4 4 -10 4 -5 0 -10
-5 -10 -11z"/>
<path d="M4743 4624 c-4 -11 1 -22 12 -31 16 -11 21 -11 33 1 8 8 12 22 9 30
-8 21 -46 21 -54 0z"/>
<path d="M4440 4609 c0 -5 5 -7 10 -4 6 3 10 8 10 11 0 2 -4 4 -10 4 -5 0 -10
-5 -10 -11z"/>
<path d="M4545 4550 c3 -5 8 -10 11 -10 2 0 4 5 4 10 0 6 -5 10 -11 10 -5 0
-7 -4 -4 -10z"/>
<path d="M2041 4518 c5 -10 12 -18 14 -18 3 0 5 8 5 18 0 10 -7 19 -14 19 -11
0 -13 -5 -5 -19z"/>
<path d="M4433 4508 c2 -7 10 -13 17 -13 7 0 15 6 18 13 2 7 -5 12 -18 12 -13
0 -20 -5 -17 -12z"/>
<path d="M4530 4506 c-6 -8 -10 -25 -9 -38 2 -13 0 -28 -4 -34 -4 -8 4 -13 23
-16 35 -5 40 -2 59 34 13 25 12 30 -4 48 -21 24 -48 26 -65 6z"/>
<path d="M4475 4474 c-10 -10 -13 -20 -7 -26 12 -12 42 1 42 17 0 22 -17 26
-35 9z"/>
<path d="M4860 4460 c0 -5 5 -10 10 -10 6 0 10 5 10 10 0 6 -4 10 -10 10 -5 0
-10 -4 -10 -10z"/>
<path d="M2753 4435 c-3 -9 -3 -18 0 -21 9 -9 27 6 27 22 0 19 -19 18 -27 -1z"/>
<path d="M1290 4421 c-9 -17 -8 -25 5 -37 17 -18 45 -12 45 9 0 8 -9 22 -19
31 -19 17 -20 17 -31 -3z"/>
<path d="M2014 4416 c-9 -20 -9 -26 3 -30 21 -8 23 -8 23 9 0 8 5 15 10 15 6
0 10 7 10 15 0 24 -34 17 -46 -9z"/>
<path d="M4468 4423 c6 -2 18 -2 25 0 6 3 1 5 -13 5 -14 0 -19 -2 -12 -5z"/>
<path d="M4700 4420 c0 -5 7 -10 16 -10 8 0 12 5 9 10 -3 6 -10 10 -16 10 -5
0 -9 -4 -9 -10z"/>
<path d="M4641 4406 c-17 -20 -6 -36 23 -34 12 1 35 -3 52 -9 76 -29 133 -19
118 21 -6 15 -13 16 -43 10 -62 -13 -106 -11 -106 6 0 20 -29 24 -44 6z"/>
<path d="M1376 4387 c-16 -12 -16 -14 -2 -26 19 -16 21 -14 30 17 8 25 -2 28
-28 9z"/>
<path d="M4616 4343 c-11 -11 -6 -23 9 -23 8 0 15 4 15 9 0 13 -16 22 -24 14z"/>
<path d="M4660 4341 c0 -5 8 -9 18 -9 9 0 25 -3 36 -7 14 -6 18 -5 14 6 -5 16
-68 26 -68 10z"/>
<path d="M1337 4320 c-3 -13 0 -20 9 -20 8 0 14 9 14 20 0 11 -4 20 -9 20 -5
0 -11 -9 -14 -20z"/>
<path d="M1542 4318 c-19 -19 -14 -38 14 -48 14 -6 22 -14 19 -20 -3 -5 -4
-10 -1 -10 3 0 13 14 21 31 13 24 14 34 4 45 -14 17 -41 18 -57 2z"/>
<path d="M1380 4310 c0 -5 5 -10 10 -10 6 0 10 5 10 10 0 6 -4 10 -10 10 -5 0
-10 -4 -10 -10z"/>
<path d="M1445 4300 c3 -5 8 -10 11 -10 2 0 4 5 4 10 0 6 -5 10 -11 10 -5 0
-7 -4 -4 -10z"/>
<path d="M1740 4301 c0 -7 -4 -10 -9 -6 -5 3 -12 1 -16 -5 -3 -5 1 -10 9 -10
17 0 31 18 22 27 -3 4 -6 1 -6 -6z"/>
<path d="M1810 4280 c0 -5 5 -10 10 -10 6 0 10 5 10 10 0 6 -4 10 -10 10 -5 0
-10 -4 -10 -10z"/>
<path d="M4480 4275 c-10 -12 -9 -16 4 -21 16 -6 46 11 46 27 0 15 -37 10 -50
-6z"/>
<path d="M1645 4210 c3 -5 8 -10 11 -10 2 0 4 5 4 10 0 6 -5 10 -11 10 -5 0
-7 -4 -4 -10z"/>
<path d="M1805 4209 c-4 -6 0 -18 9 -27 15 -15 16 -15 16 5 0 25 -15 38 -25
22z"/>
<path d="M1490 4110 c0 -19 3 -21 12 -12 9 9 9 15 0 24 -9 9 -12 7 -12 -12z"/>
<path d="M5304 4043 c-38 -28 -12 -76 39 -71 37 4 57 30 41 56 -12 18 -62 27
-80 15z"/>
<path d="M5094 4018 c-9 -14 23 -38 42 -31 8 3 14 14 14 24 0 22 -44 27 -56 7z"/>
<path d="M472 3981 c-10 -6 -10 -11 3 -21 19 -16 30 -7 18 14 -5 9 -13 12 -21
7z"/>
<path d="M540 3940 c0 -5 5 -10 10 -10 6 0 10 5 10 10 0 6 -4 10 -10 10 -5 0
-10 -4 -10 -10z"/>
<path d="M571 3924 c0 -11 3 -14 6 -6 3 7 2 16 -1 19 -3 4 -6 -2 -5 -13z"/>
<path d="M530 3895 c0 -9 5 -15 11 -13 6 2 11 8 11 13 0 5 -5 11 -11 13 -6 2
-11 -4 -11 -13z"/>
<path d="M5115 3880 c-8 -12 20 -24 35 -15 6 3 8 11 5 16 -8 12 -32 12 -40 -1z"/>
<path d="M470 3859 c0 -5 5 -7 10 -4 6 3 10 8 10 11 0 2 -4 4 -10 4 -5 0 -10
-5 -10 -11z"/>
<path d="M83 3853 c-20 -7 -15 -33 6 -33 11 0 22 4 25 9 8 12 -16 29 -31 24z"/>
<path d="M4870 3850 c-13 -8 33 -50 54 -50 21 0 38 18 34 36 -2 14 -13 19 -40
20 -20 1 -42 -2 -48 -6z"/>
<path d="M5285 3850 c-3 -5 1 -10 9 -10 9 0 16 5 16 10 0 6 -4 10 -9 10 -6 0
-13 -4 -16 -10z"/>
<path d="M625 3830 c10 -11 20 -20 23 -20 3 0 -3 9 -13 20 -10 11 -20 20 -23
20 -3 0 3 -9 13 -20z"/>
<path d="M514 3794 c-18 -15 -18 -15 3 -11 12 3 24 0 26 -7 2 -6 7 -9 10 -6 3
3 0 13 -7 22 -12 16 -15 16 -32 2z"/>
<path d="M4740 3705 c-10 -12 -9 -16 3 -21 21 -8 37 3 30 21 -7 19 -17 19 -33
0z"/>
<path d="M4680 3676 c0 -7 -7 -19 -15 -26 -15 -12 -12 -30 5 -30 9 0 40 51 40
65 0 3 -7 5 -15 5 -8 0 -15 -6 -15 -14z"/>
<path d="M445 3671 c-10 -17 15 -53 33 -49 26 5 22 52 -5 56 -11 2 -24 -2 -28
-7z"/>
<path d="M4570 3650 c0 -5 7 -7 15 -4 8 4 15 8 15 10 0 2 -7 4 -15 4 -8 0 -15
-4 -15 -10z"/>
<path d="M188 3638 c-8 -21 2 -38 24 -38 14 0 19 6 16 22 -3 25 -33 36 -40 16z"/>
<path d="M292 3624 c-27 -19 -29 -60 -3 -74 46 -24 101 -2 101 42 0 42 -57 61
-98 32z"/>
<path d="M721 3623 c-25 -18 -1 -46 47 -57 30 -6 46 -5 57 4 19 16 19 44 1 59
-17 14 -83 10 -105 -6z"/>
<path d="M4846 3624 c-22 -21 -20 -61 3 -74 44 -23 101 1 101 42 0 41 -73 63
-104 32z"/>
<path d="M4758 3623 c7 -3 16 -2 19 1 4 3 -2 6 -13 5 -11 0 -14 -3 -6 -6z"/>
<path d="M620 3520 c0 -5 5 -10 10 -10 6 0 10 5 10 10 0 6 -4 10 -10 10 -5 0
-10 -4 -10 -10z"/>
<path d="M4866 3421 c-4 -5 -2 -12 3 -15 5 -4 12 -2 15 3 4 5 2 12 -3 15 -5 4
-12 2 -15 -3z"/>
<path d="M5000 3389 c-57 -61 -60 -65 -60 -82 0 -12 9 -17 33 -17 17 0 58 -2
90 -4 54 -4 59 -2 68 21 23 61 1 102 -60 110 -36 5 -43 2 -71 -28z"/>
<path d="M190 3380 c0 -5 5 -10 11 -10 5 0 7 5 4 10 -3 6 -8 10 -11 10 -2 0
-4 -4 -4 -10z"/>
<path d="M300 3382 c0 -5 12 -14 26 -21 23 -10 26 -10 20 4 -3 9 -6 19 -6 21
0 2 -9 4 -20 4 -11 0 -20 -4 -20 -8z"/>
<path d="M331 3306 c-15 -18 3 -31 54 -40 22 -3 51 -9 64 -13 16 -4 22 -3 18
5 -4 5 -25 13 -46 17 -27 4 -41 13 -44 26 -6 22 -30 25 -46 5z"/>
<path d="M500 3266 c-6 -8 -10 -25 -8 -38 2 -17 10 -23 35 -25 19 -2 38 4 48
13 14 14 18 14 33 2 20 -17 62 -21 62 -6 0 6 -9 8 -20 5 -14 -3 -27 5 -45 29
-20 27 -33 34 -59 34 -19 0 -39 -7 -46 -14z"/>
<path d="M230 3256 c0 -2 7 -7 16 -10 8 -3 12 -2 9 4 -6 10 -25 14 -25 6z"/>
<path d="M4915 3250 c3 -5 10 -10 16 -10 5 0 9 5 9 10 0 6 -7 10 -16 10 -8 0
-12 -4 -9 -10z"/>
<path d="M300 3175 c0 -10 7 -15 18 -13 21 4 19 22 -2 26 -10 2 -16 -3 -16
-13z"/>
<path d="M365 3180 c4 -6 11 -8 16 -5 14 9 11 15 -7 15 -8 0 -12 -5 -9 -10z"/>
<path d="M602 3168 c5 -15 28 -18 29 -3 0 6 -7 12 -17 13 -10 3 -15 -1 -12
-10z"/>
<path d="M690 3173 c0 -4 5 -15 10 -23 8 -13 10 -13 10 2 0 9 -4 20 -10 23 -5
3 -10 3 -10 -2z"/>
<path d="M513 3153 c-20 -8 -15 -27 15 -56 38 -37 56 -35 49 3 -4 20 -2 30 5
30 7 0 3 7 -8 15 -19 15 -39 17 -61 8z"/>
<path d="M5237 3153 c-14 -13 -6 -33 13 -33 13 0 20 7 20 20 0 19 -20 27 -33
13z"/>
<path d="M772 3124 c-22 -9 -32 -20 -32 -34 0 -29 39 -80 57 -73 10 4 11 9 3
18 -8 10 -4 15 17 19 23 5 28 12 28 35 0 16 -3 27 -7 25 -3 -2 -13 2 -20 10
-12 12 -19 12 -46 0z"/>
<path d="M440 3110 c0 -5 5 -10 10 -10 6 0 10 5 10 10 0 6 -4 10 -10 10 -5 0
-10 -4 -10 -10z"/>
<path d="M690 3101 c0 -5 6 -13 13 -19 10 -8 13 -6 14 9 1 10 -5 19 -13 19 -8
0 -14 -4 -14 -9z"/>
<path d="M610 3045 c0 -8 5 -15 10 -15 6 0 10 7 10 15 0 8 -4 15 -10 15 -5 0
-10 -7 -10 -15z"/>
<path d="M122 3019 c2 -7 10 -15 17 -17 8 -3 12 1 9 9 -2 7 -10 15 -17 17 -8
3 -12 -1 -9 -9z"/>
<path d="M670 3026 c0 -2 7 -7 16 -10 8 -3 12 -2 9 4 -6 10 -25 14 -25 6z"/>
<path d="M540 3010 c0 -5 5 -10 11 -10 5 0 7 5 4 10 -3 6 -8 10 -11 10 -2 0
-4 -4 -4 -10z"/>
<path d="M4825 3010 c3 -5 8 -10 11 -10 2 0 4 5 4 10 0 6 -5 10 -11 10 -5 0
-7 -4 -4 -10z"/>
<path d="M950 2950 c0 -5 6 -10 14 -10 8 0 18 5 21 10 3 6 -3 10 -14 10 -12 0
-21 -4 -21 -10z"/>
<path d="M396 2942 c-9 -14 12 -35 28 -29 23 9 20 37 -3 37 -11 0 -22 -4 -25
-8z"/>
<path d="M587 2933 c-9 -9 -9 -53 1 -53 4 0 7 14 8 30 1 32 1 33 -9 23z"/>
<path d="M618 2913 c7 -3 16 -2 19 1 4 3 -2 6 -13 5 -11 0 -14 -3 -6 -6z"/>
<path d="M342 2861 c-10 -6 -10 -10 2 -20 10 -9 16 -9 21 -1 10 16 -7 31 -23
21z"/>
<path d="M550 2850 c0 -5 5 -10 11 -10 5 0 7 5 4 10 -3 6 -8 10 -11 10 -2 0
-4 -4 -4 -10z"/>
<path d="M100 2792 c0 -5 7 -13 16 -16 10 -4 14 -1 12 6 -5 15 -28 23 -28 10z"/>
<path d="M495 2740 c-3 -5 1 -10 9 -10 9 0 16 -4 16 -10 0 -5 7 -10 15 -10 8
0 15 -7 15 -15 0 -13 2 -14 14 -3 17 16 11 28 -15 28 -11 0 -22 7 -25 15 -7
17 -20 20 -29 5z"/>
<path d="M590 2740 c0 -5 5 -10 10 -10 6 0 10 5 10 10 0 6 -4 10 -10 10 -5 0
-10 -4 -10 -10z"/>
<path d="M735 2700 c-3 -5 -1 -10 4 -10 6 0 11 5 11 10 0 6 -2 10 -4 10 -3 0
-8 -4 -11 -10z"/>
<path d="M777 2669 c8 -8 16 -8 30 0 16 9 14 10 -11 11 -22 0 -27 -3 -19 -11z"/>
<path d="M383 2658 c-13 -6 -23 -19 -23 -30 0 -15 8 -18 48 -18 58 0 64 4 50
36 -12 26 -38 30 -75 12z"/>
<path d="M4995 2651 c-3 -5 -1 -12 5 -16 5 -3 10 1 10 9 0 18 -6 21 -15 7z"/>
<path d="M682 2628 c3 -7 14 -14 26 -16 12 -2 22 -8 22 -14 0 -6 3 -9 6 -6 3
4 1 16 -6 27 -11 22 -55 30 -48 9z"/>
<path d="M570 2595 c7 -8 20 -15 29 -15 13 1 13 3 -3 15 -26 19 -42 19 -26 0z"/>
<path d="M703 2573 c-17 -6 -17 -20 0 -26 8 -3 13 3 13 14 0 11 0 19 -1 18 0
0 -6 -3 -12 -6z"/>
<path d="M485 2560 c3 -5 12 -7 20 -3 21 7 19 13 -6 13 -11 0 -18 -4 -14 -10z"/>
<path d="M505 2530 c-3 -5 1 -10 9 -10 8 0 18 5 21 10 3 6 -1 10 -9 10 -8 0
-18 -4 -21 -10z"/>
<path d="M750 2530 c8 -5 20 -10 25 -10 6 0 3 5 -5 10 -8 5 -19 10 -25 10 -5
0 -3 -5 5 -10z"/>
<path d="M4690 2519 c0 -5 5 -7 10 -4 6 3 10 8 10 11 0 2 -4 4 -10 4 -5 0 -10
-5 -10 -11z"/>
<path d="M520 2500 c0 -5 6 -10 14 -10 8 0 18 5 21 10 3 6 -3 10 -14 10 -12 0
-21 -4 -21 -10z"/>
<path d="M4843 2489 c-16 -16 16 -71 37 -63 8 3 20 7 27 8 20 3 28 16 11 16
-9 0 -18 7 -22 15 -3 8 -12 15 -20 15 -8 0 -16 5 -18 10 -2 7 -7 7 -15 -1z"/>
<path d="M4965 2481 c-3 -5 -1 -12 5 -16 12 -7 30 2 30 16 0 12 -27 12 -35 0z"/>
<path d="M735 2470 c4 -6 11 -8 16 -5 14 9 11 15 -7 15 -8 0 -12 -5 -9 -10z"/>
<path d="M685 2460 c-3 -5 1 -10 10 -10 9 0 13 5 10 10 -3 6 -8 10 -10 10 -2
0 -7 -4 -10 -10z"/>
<path d="M716 2434 c-10 -26 -7 -28 14 -9 25 22 39 13 16 -11 -9 -9 -16 -18
-14 -19 8 -8 58 9 58 19 0 33 -62 50 -74 20z"/>
<path d="M4815 2440 c-3 -5 -1 -10 4 -10 6 0 11 5 11 10 0 6 -2 10 -4 10 -3 0
-8 -4 -11 -10z"/>
<path d="M700 2389 c0 -5 5 -7 10 -4 6 3 10 8 10 11 0 2 -4 4 -10 4 -5 0 -10
-5 -10 -11z"/>
<path d="M4795 2390 c-3 -5 -1 -10 4 -10 6 0 11 5 11 10 0 6 -2 10 -4 10 -3 0
-8 -4 -11 -10z"/>
<path d="M720 2360 c-9 -6 -10 -10 -3 -10 6 0 15 5 18 10 8 12 4 12 -15 0z"/>
<path d="M777 2356 c-4 -10 0 -14 14 -13 10 1 19 7 19 14 0 18 -27 16 -33 -1z"/>
<path d="M861 2311 c-8 -5 -9 -11 -3 -15 6 -3 13 -2 17 4 4 6 11 7 17 4 7 -4
8 -2 4 4 -8 14 -16 15 -35 3z"/>
<path d="M4655 2310 c-3 -5 -1 -10 4 -10 6 0 11 5 11 10 0 6 -2 10 -4 10 -3 0
-8 -4 -11 -10z"/>
<path d="M5055 2300 c-3 -5 3 -10 15 -10 12 0 18 5 15 10 -3 6 -10 10 -15 10
-5 0 -12 -4 -15 -10z"/>
<path d="M815 2280 c-3 -5 -11 -8 -18 -6 -7 1 -9 1 -4 -1 4 -3 5 -9 1 -14 -3
-5 1 -9 10 -9 8 0 17 -6 19 -12 3 -7 6 2 6 20 1 33 -3 40 -14 22z"/>
<path d="M687 2243 c-10 -9 -9 -23 2 -23 5 0 11 7 15 15 5 15 -5 20 -17 8z"/>
<path d="M5030 2225 c0 -9 9 -15 25 -15 28 0 34 15 9 24 -25 10 -34 7 -34 -9z"/>
<path d="M4980 2195 c-9 -10 -9 -15 -1 -15 6 0 13 0 16 0 3 0 5 3 4 6 0 4 5
11 13 15 10 7 9 9 -3 9 -9 0 -22 -7 -29 -15z"/>
<path d="M5070 2189 c0 -5 5 -7 10 -4 6 3 10 8 10 11 0 2 -4 4 -10 4 -5 0 -10
-5 -10 -11z"/>
<path d="M615 2170 c-3 -6 1 -7 9 -4 18 7 21 14 7 14 -6 0 -13 -4 -16 -10z"/>
<path d="M5040 2166 c0 -7 6 -19 14 -25 11 -9 12 -6 8 14 -5 26 -22 35 -22 11z"/>
<path d="M670 2146 c7 -7 13 -7 20 0 6 6 3 10 -10 10 -13 0 -16 -4 -10 -10z"/>
<path d="M5020 2110 c0 -5 5 -10 10 -10 6 0 10 5 10 10 0 6 -4 10 -10 10 -5 0
-10 -4 -10 -10z"/>
<path d="M894 2054 c-11 -12 -27 -23 -35 -26 -12 -5 -12 -7 0 -19 12 -12 13
-12 6 0 -6 11 -4 13 9 8 10 -4 21 -7 26 -7 4 0 10 -9 13 -21 3 -12 10 -18 17
-14 6 4 8 14 4 24 -4 9 -9 30 -13 46 l-6 30 -21 -21z"/>
<path d="M5006 2061 c-18 -20 -21 -37 -6 -46 14 -9 80 5 80 17 0 5 -9 6 -20 3
-15 -5 -20 -2 -20 14 0 28 -15 34 -34 12z"/>
<path d="M5230 2056 c0 -9 7 -16 16 -16 9 0 14 5 12 12 -6 18 -28 21 -28 4z"/>
<path d="M760 2050 c0 -5 -8 -7 -17 -4 -17 5 -17 5 0 -6 18 -11 37 -6 37 11 0
5 -4 9 -10 9 -5 0 -10 -4 -10 -10z"/>
<path d="M5115 2050 c-16 -25 25 -40 55 -20 13 9 13 11 0 20 -19 13 -47 13
-55 0z"/>
<path d="M4871 2029 c-17 -14 -19 -19 -7 -19 23 0 20 -27 -4 -33 -13 -3 -18
-10 -14 -21 7 -17 39 -22 48 -7 3 5 21 5 41 1 31 -7 34 -6 25 11 -16 28 -30
32 -51 13 -24 -21 -38 -11 -17 13 13 15 17 48 6 58 -2 2 -14 -5 -27 -16z"/>
<path d="M785 2030 c3 -5 8 -10 11 -10 2 0 4 5 4 10 0 6 -5 10 -11 10 -5 0 -7
-4 -4 -10z"/>
<path d="M780 2012 c-25 -2 -47 -15 -77 -45 -24 -23 -43 -45 -43 -49 0 -15 27
-8 45 12 10 11 24 20 32 20 7 0 13 7 13 15 0 18 43 37 64 29 8 -3 17 -1 20 4
8 13 -11 18 -54 14z"/>
<path d="M4955 2000 c-3 -5 -2 -10 4 -10 5 0 13 5 16 10 3 6 2 10 -4 10 -5 0
-13 -4 -16 -10z"/>
<path d="M5020 1990 c0 -5 5 -10 10 -10 6 0 10 5 10 10 0 6 -4 10 -10 10 -5 0
-10 -4 -10 -10z"/>
<path d="M4982 1979 c2 -7 10 -15 17 -17 8 -3 12 1 9 9 -2 7 -10 15 -17 17 -8
3 -12 -1 -9 -9z"/>
<path d="M770 1949 c0 -5 5 -7 10 -4 6 3 10 8 10 11 0 2 -4 4 -10 4 -5 0 -10
-5 -10 -11z"/>
<path d="M545 1940 c-3 -5 1 -10 9 -10 9 0 16 5 16 10 0 6 -4 10 -9 10 -6 0
-13 -4 -16 -10z"/>
<path d="M4760 1940 c0 -5 7 -10 15 -10 8 0 15 5 15 10 0 6 -7 10 -15 10 -8 0
-15 -4 -15 -10z"/>
<path d="M420 1914 c0 -8 4 -12 10 -9 5 3 7 0 4 -8 -8 -22 16 -32 34 -13 15
14 15 17 -3 31 -26 19 -45 19 -45 -1z"/>
<path d="M776 1911 c-3 -5 3 -11 14 -14 13 -3 20 0 20 9 0 15 -26 19 -34 5z"/>
<path d="M515 1870 c3 -5 11 -10 16 -10 6 0 7 5 4 10 -3 6 -11 10 -16 10 -6 0
-7 -4 -4 -10z"/>
<path d="M351 1832 c-7 -14 -5 -21 9 -29 32 -21 82 9 64 38 -10 16 -63 10 -73
-9z"/>
<path d="M470 1842 c0 -6 33 -31 43 -32 4 0 7 8 7 19 0 13 -7 19 -25 19 -14 0
-25 -3 -25 -6z"/>
<path d="M4778 1803 c7 -3 16 -2 19 1 4 3 -2 6 -13 5 -11 0 -14 -3 -6 -6z"/>
<path d="M4815 1790 c-3 -5 1 -10 9 -10 9 0 16 5 16 10 0 6 -4 10 -9 10 -6 0
-13 -4 -16 -10z"/>
<path d="M4940 1790 c0 -5 7 -10 15 -10 8 0 15 5 15 10 0 6 -7 10 -15 10 -8 0
-15 -4 -15 -10z"/>
<path d="M5005 1790 c-3 -5 1 -10 9 -10 9 0 16 5 16 10 0 6 -4 10 -9 10 -6 0
-13 -4 -16 -10z"/>
<path d="M4820 1749 c0 -5 5 -7 10 -4 6 3 10 8 10 11 0 2 -4 4 -10 4 -5 0 -10
-5 -10 -11z"/>
<path d="M5008 1753 c7 -3 16 -2 19 1 4 3 -2 6 -13 5 -11 0 -14 -3 -6 -6z"/>
<path d="M4905 1740 c-4 -6 -10 -8 -15 -5 -5 3 -11 1 -15 -5 -3 -5 -2 -10 4
-10 6 0 7 -8 4 -17 -6 -15 -4 -16 9 -5 9 7 39 15 67 19 28 3 51 9 51 13 0 5
-8 6 -19 3 -10 -3 -22 0 -25 6 -9 14 -53 14 -61 1z"/>
<path d="M5075 1740 c-3 -5 -15 -10 -26 -10 -10 0 -19 -7 -19 -15 0 -12 5 -13
24 -3 14 6 27 17 30 24 6 16 0 19 -9 4z"/>
<path d="M806 1731 c-4 -5 -2 -12 3 -15 5 -4 12 -2 15 3 4 5 2 12 -3 15 -5 4
-12 2 -15 -3z"/>
<path d="M4710 1735 c0 -10 54 -26 69 -20 13 5 14 7 1 15 -16 10 -70 14 -70 5z"/>
<path d="M4810 1719 c0 -5 5 -7 10 -4 6 3 10 8 10 11 0 2 -4 4 -10 4 -5 0 -10
-5 -10 -11z"/>
<path d="M4847 1723 c-4 -3 -7 -11 -7 -17 0 -6 5 -5 12 2 6 6 9 14 7 17 -3 3
-9 2 -12 -2z"/>
<path d="M775 1700 c3 -5 10 -10 16 -10 5 0 9 5 9 10 0 6 -7 10 -16 10 -8 0
-12 -4 -9 -10z"/>
<path d="M435 1690 c3 -5 10 -10 16 -10 5 0 9 5 9 10 0 6 -7 10 -16 10 -8 0
-12 -4 -9 -10z"/>
<path d="M543 1650 c-2 -19 8 -26 20 -14 7 7 -2 34 -12 34 -4 0 -7 -9 -8 -20z"/>
<path d="M5345 1640 c11 -5 38 -8 60 -8 34 0 36 1 15 8 -14 4 -41 8 -60 8 -28
1 -31 -1 -15 -8z"/>
<path d="M5505 1620 c3 -5 8 -10 11 -10 2 0 4 5 4 10 0 6 -5 10 -11 10 -5 0
-7 -4 -4 -10z"/>
<path d="M4765 1610 c3 -5 13 -10 21 -10 8 0 12 5 9 10 -3 6 -13 10 -21 10 -8
0 -12 -4 -9 -10z"/>
<path d="M4510 1600 c0 -5 5 -10 10 -10 6 0 10 5 10 10 0 6 -4 10 -10 10 -5 0
-10 -4 -10 -10z"/>
<path d="M4466 1575 c-3 -9 0 -18 9 -21 21 -8 47 3 43 19 -7 18 -45 20 -52 2z"/>
<path d="M4400 1570 c0 -5 6 -10 14 -10 8 0 18 5 21 10 3 6 -3 10 -14 10 -12
0 -21 -4 -21 -10z"/>
<path d="M4515 1540 c-3 -6 1 -7 9 -4 18 7 21 14 7 14 -6 0 -13 -4 -16 -10z"/>
<path d="M4815 1539 c32 -11 214 -38 254 -39 49 0 13 9 -112 29 -139 23 -194
26 -142 10z"/>
<path d="M690 1525 c-6 -8 -10 -19 -8 -26 2 -6 9 0 16 15 13 29 10 33 -8 11z"/>
<path d="M4365 1530 c-3 -5 -1 -10 4 -10 6 0 11 5 11 10 0 6 -2 10 -4 10 -3 0
-8 -4 -11 -10z"/>
<path d="M635 1520 c-7 -12 2 -30 16 -30 12 0 12 27 0 35 -5 3 -12 1 -16 -5z"/>
<path d="M4382 1484 c-5 -62 64 -76 82 -18 5 18 1 24 -25 33 -47 16 -54 14
-57 -15z"/>
<path d="M4505 1499 c-4 -6 -4 -13 -1 -16 8 -8 36 5 36 17 0 13 -27 13 -35 -1z"/>
<path d="M4337 1476 c-3 -7 0 -19 6 -25 8 -8 8 -11 0 -11 -13 0 -10 -33 3 -37
5 -2 10 5 10 14 1 10 4 30 9 46 5 21 4 27 -8 27 -8 0 -17 -6 -20 -14z"/>
<path d="M1305 1470 c3 -5 10 -10 16 -10 5 0 9 5 9 10 0 6 -7 10 -16 10 -8 0
-12 -4 -9 -10z"/>
<path d="M1350 1449 c0 -5 5 -7 10 -4 6 3 10 8 10 11 0 2 -4 4 -10 4 -5 0 -10
-5 -10 -11z"/>
<path d="M1624 1442 c-9 -14 -15 -14 -42 -3 -24 10 -35 11 -46 2 -8 -6 -18
-11 -22 -10 -22 4 -34 -2 -34 -16 0 -18 12 -19 28 -3 9 9 12 9 12 -1 0 -8 8
-20 18 -28 16 -14 16 -14 0 -9 -10 3 -18 1 -18 -4 0 -6 -6 -10 -13 -10 -19 0
-36 -20 -30 -36 6 -17 33 -19 33 -2 0 6 15 25 33 40 17 16 26 26 18 22 -9 -4
-12 -2 -9 7 3 8 11 14 19 15 21 1 79 27 79 36 0 15 -17 16 -26 0z"/>
<path d="M4500 1450 c0 -5 7 -7 15 -4 8 4 15 8 15 10 0 2 -7 4 -15 4 -8 0 -15
-4 -15 -10z"/>
<path d="M1015 1441 c-2 -5 7 -13 21 -20 14 -6 24 -17 22 -23 -4 -26 14 -58
33 -58 22 0 26 18 4 26 -8 4 -13 10 -10 15 3 4 12 6 20 2 10 -3 15 2 15 16 0
16 -6 21 -24 21 -14 0 -27 4 -30 9 -8 12 -45 21 -51 12z"/>
<path d="M4540 1439 c0 -5 5 -7 10 -4 6 3 10 8 10 11 0 2 -4 4 -10 4 -5 0 -10
-5 -10 -11z"/>
<path d="M1327 1433 c-9 -14 -6 -102 4 -109 5 -3 8 5 6 18 -1 17 3 23 17 23
11 0 21 6 24 14 3 10 0 12 -12 8 -10 -4 -16 -1 -16 9 0 8 12 19 28 25 16 7 22
13 14 16 -7 3 -20 -1 -28 -8 -13 -10 -17 -10 -24 0 -4 7 -10 9 -13 4z"/>
<path d="M4300 1420 c0 -5 5 -10 10 -10 6 0 10 5 10 10 0 6 -4 10 -10 10 -5 0
-10 -4 -10 -10z"/>
<path d="M930 1409 c0 -9 7 -19 15 -23 19 -7 25 -7 25 -1 0 3 -2 4 -5 3 -2 -2
-11 6 -19 17 -13 17 -15 17 -16 4z"/>
<path d="M1430 1410 c0 -5 5 -10 10 -10 6 0 10 5 10 10 0 6 -4 10 -10 10 -5 0
-10 -4 -10 -10z"/>
<path d="M4430 1403 c0 -26 16 -47 29 -39 16 11 13 43 -5 50 -23 9 -24 8 -24
-11z"/>
<path d="M4375 1399 c-10 -15 3 -25 16 -12 7 7 7 13 1 17 -6 3 -14 1 -17 -5z"/>
<path d="M4506 1403 c-11 -11 -6 -23 9 -23 8 0 15 4 15 9 0 13 -16 22 -24 14z"/>
<path d="M4572 1403 c-6 -2 -10 -9 -6 -14 8 -14 21 -11 28 6 6 15 1 17 -22 8z"/>
<path d="M1137 1393 c-5 -7 -5 -13 0 -13 4 0 1 -4 -7 -10 -8 -5 -12 -11 -9
-14 10 -10 31 12 27 30 -2 14 -6 15 -11 7z"/>
<path d="M1480 1380 c0 -5 5 -10 10 -10 6 0 10 5 10 10 0 6 -4 10 -10 10 -5 0
-10 -4 -10 -10z"/>
<path d="M4340 1376 c0 -7 -7 -19 -15 -26 -23 -19 -19 -42 8 -38 18 2 23 10
25 41 2 21 -1 37 -7 37 -6 0 -11 -6 -11 -14z"/>
<path d="M1600 1365 c0 -8 -3 -15 -7 -15 -5 0 -19 -9 -33 -20 l-25 -20 33 0
c18 0 31 4 28 9 -3 5 1 14 9 21 17 14 20 40 5 40 -5 0 -10 -7 -10 -15z"/>
<path d="M4280 1360 c0 -5 5 -10 10 -10 6 0 10 5 10 10 0 6 -4 10 -10 10 -5 0
-10 -4 -10 -10z"/>
<path d="M4385 1360 c-3 -5 -1 -10 4 -10 6 0 11 5 11 10 0 6 -2 10 -4 10 -3 0
-8 -4 -11 -10z"/>
<path d="M4565 1360 c-3 -5 1 -10 10 -10 9 0 13 5 10 10 -3 6 -8 10 -10 10 -2
0 -7 -4 -10 -10z"/>
<path d="M1145 1340 c-3 -5 -1 -10 4 -10 6 0 11 5 11 10 0 6 -2 10 -4 10 -3 0
-8 -4 -11 -10z"/>
<path d="M4444 1335 c-12 -9 -14 -14 -6 -15 8 0 10 -5 6 -12 -5 -8 -2 -9 10
-5 10 4 24 7 33 7 9 0 13 6 10 14 -4 9 1 17 11 19 9 3 3 5 -14 6 -16 0 -39 -6
-50 -14z"/>
<path d="M4630 1340 c-8 -5 -23 -11 -33 -14 -11 -4 -15 -11 -11 -18 6 -9 9 -9
12 0 2 7 12 12 22 12 10 0 20 7 24 15 6 17 6 17 -14 5z"/>
<path d="M1080 1309 c-7 -11 -10 -23 -7 -25 6 -6 37 25 37 37 0 17 -19 9 -30
-12z"/>
<path d="M1175 1320 c3 -5 10 -10 16 -10 5 0 9 5 9 10 0 6 -7 10 -16 10 -8 0
-12 -4 -9 -10z"/>
<path d="M1355 1320 c-3 -5 1 -10 9 -10 9 0 16 5 16 10 0 6 -4 10 -9 10 -6 0
-13 -4 -16 -10z"/>
<path d="M1415 1320 c-3 -5 1 -10 9 -10 8 0 18 5 21 10 3 6 -1 10 -9 10 -8 0
-18 -4 -21 -10z"/>
<path d="M4400 1320 c0 -5 5 -10 10 -10 6 0 10 5 10 10 0 6 -4 10 -10 10 -5 0
-10 -4 -10 -10z"/>
<path d="M1120 1295 c0 -14 -5 -25 -11 -25 -5 0 -7 -4 -4 -10 9 -15 25 -12 25
5 0 7 8 19 18 24 15 9 15 12 2 21 -23 15 -30 12 -30 -15z"/>
<path d="M1210 1300 c0 -5 5 -10 10 -10 6 0 10 5 10 10 0 6 -4 10 -10 10 -5 0
-10 -4 -10 -10z"/>
<path d="M1360 1279 c0 -5 5 -7 10 -4 6 3 10 8 10 11 0 2 -4 4 -10 4 -5 0 -10
-5 -10 -11z"/>
<path d="M1548 1283 c7 -3 16 -2 19 1 4 3 -2 6 -13 5 -11 0 -14 -3 -6 -6z"/>
<path d="M1450 1271 c-8 -6 -17 -8 -21 -5 -4 2 -10 0 -14 -6 -3 -5 -2 -10 4
-10 6 0 8 -7 4 -16 -4 -12 -2 -15 8 -10 8 3 22 9 32 12 10 4 16 13 13 20 -3 7
4 14 17 17 20 4 20 4 -3 5 -14 1 -32 -2 -40 -7z"/>
<path d="M3532 1250 c1 -31 22 -41 32 -15 7 20 -3 45 -19 45 -9 0 -13 -11 -13
-30z"/>
<path d="M3620 1270 c0 -5 5 -10 10 -10 6 0 10 5 10 10 0 6 -4 10 -10 10 -5 0
-10 -4 -10 -10z"/>
<path d="M4206 1263 c-11 -11 -6 -23 9 -23 8 0 15 4 15 9 0 13 -16 22 -24 14z"/>
<path d="M4479 1249 c-8 -16 -7 -26 6 -45 8 -13 22 -24 29 -24 19 0 38 26 34
47 -1 10 1 23 4 29 5 7 -5 11 -27 12 -25 1 -38 -4 -46 -19z"/>
<path d="M1158 1253 c7 -3 16 -2 19 1 4 3 -2 6 -13 5 -11 0 -14 -3 -6 -6z"/>
<path d="M1350 1249 c0 -5 5 -7 10 -4 6 3 10 8 10 11 0 2 -4 4 -10 4 -5 0 -10
-5 -10 -11z"/>
<path d="M1387 1253 c-4 -3 -7 -11 -7 -17 0 -6 5 -5 12 2 6 6 9 14 7 17 -3 3
-9 2 -12 -2z"/>
<path d="M3580 1241 c0 -5 7 -11 14 -14 10 -4 13 -1 9 9 -6 15 -23 19 -23 5z"/>
<path d="M1177 1212 c-20 -22 -22 -42 -4 -42 19 0 34 13 41 38 9 28 -13 30
-37 4z"/>
<path d="M4351 1206 c-10 -11 -7 -14 14 -12 14 0 24 5 22 10 -5 16 -23 17 -36
2z"/>
<path d="M3555 1190 c-3 -5 -1 -10 4 -10 6 0 11 5 11 10 0 6 -2 10 -4 10 -3 0
-8 -4 -11 -10z"/>
<path d="M3614 1187 c-7 -20 13 -67 30 -67 8 0 18 -9 21 -20 7 -23 35 -27 35
-5 0 8 -9 19 -20 25 -11 6 -18 15 -14 21 7 12 -22 59 -37 59 -5 0 -12 -6 -15
-13z"/>
<path d="M3492 1179 c2 -6 8 -10 13 -10 5 0 11 4 13 10 2 6 -4 11 -13 11 -9 0
-15 -5 -13 -11z"/>
<path d="M1322 1171 c4 -13 18 -16 19 -4 0 4 -5 9 -11 12 -7 2 -11 -2 -8 -8z"/>
<path d="M4330 1126 c0 -2 7 -9 15 -16 12 -10 15 -10 15 4 0 9 -7 16 -15 16
-8 0 -15 -2 -15 -4z"/>
<path d="M4245 1109 c-4 -6 -4 -13 -1 -16 8 -8 36 5 36 17 0 13 -27 13 -35 -1z"/>
<path d="M3598 1068 c-9 -7 -19 -22 -22 -34 -6 -19 -3 -21 30 -20 47 1 69 30
40 52 -24 17 -28 17 -48 2z"/>
<path d="M3460 1039 c0 -5 9 -9 20 -9 11 0 20 2 20 4 0 2 -9 6 -20 9 -11 3
-20 1 -20 -4z"/>
<path d="M3794 1039 c-3 -6 -2 -15 4 -21 11 -11 52 6 52 22 0 14 -47 13 -56
-1z"/>
<path d="M3751 1011 c-19 -12 -6 -41 18 -41 23 0 34 23 18 39 -13 13 -18 13
-36 2z"/>
<path d="M1864 978 c-10 -16 -18 -34 -16 -40 4 -16 -31 -37 -54 -32 -29 7 -47
-17 -35 -49 7 -17 17 -25 33 -25 13 0 36 -4 51 -7 20 -5 33 -2 47 10 21 19 26
50 10 60 -6 4 -5 14 4 28 12 19 12 26 -3 53 l-17 32 -20 -30z"/>
<path d="M4005 1000 c-3 -5 -1 -10 4 -10 6 0 11 5 11 10 0 6 -2 10 -4 10 -3 0
-8 -4 -11 -10z"/>
<path d="M680 990 c0 -5 7 -10 16 -10 8 0 12 5 9 10 -3 6 -10 10 -16 10 -5 0
-9 -4 -9 -10z"/>
<path d="M2767 983 c-11 -10 -8 -20 9 -38 9 -8 17 -27 18 -40 1 -28 11 -33 20
-9 11 27 7 42 -13 47 -14 3 -18 11 -14 26 5 20 -6 28 -20 14z"/>
<path d="M3871 977 c-9 -11 -8 -17 4 -27 19 -16 47 -5 43 17 -4 23 -31 28 -47
10z"/>
<path d="M4460 950 c24 -22 46 -37 48 -35 5 5 -71 74 -83 74 -5 0 10 -17 35
-39z"/>
<path d="M1490 970 c0 -5 5 -10 11 -10 5 0 7 5 4 10 -3 6 -8 10 -11 10 -2 0
-4 -4 -4 -10z"/>
<path d="M647 940 c-7 -33 -1 -55 21 -81 14 -16 17 -16 38 -2 13 8 20 21 17
29 -3 8 0 14 6 14 6 0 11 -11 11 -24 0 -28 26 -42 47 -25 9 8 13 27 11 53 -3
39 -4 41 -33 38 -16 -2 -33 -8 -36 -14 -7 -11 -58 19 -59 35 -1 20 -18 3 -23
-23z"/>
<path d="M2486 945 c-10 -8 -15 -18 -12 -23 8 -14 46 -3 46 14 0 20 -13 24
-34 9z"/>
<path d="M4110 920 c0 -5 5 -10 10 -10 6 0 10 5 10 10 0 6 -4 10 -10 10 -5 0
-10 -4 -10 -10z"/>
<path d="M2830 910 c0 -5 5 -10 11 -10 5 0 7 5 4 10 -3 6 -8 10 -11 10 -2 0
-4 -4 -4 -10z"/>
<path d="M3826 903 c-11 -11 -6 -23 9 -23 8 0 15 4 15 9 0 13 -16 22 -24 14z"/>
<path d="M1157 885 c-10 -9 -17 -18 -17 -20 0 -2 16 -12 35 -24 40 -23 45 -50
14 -69 -33 -21 -15 -25 19 -5 26 15 35 16 51 6 27 -17 45 -8 67 33 l19 35 -28
25 c-16 13 -40 24 -55 24 -15 0 -41 2 -58 6 -22 4 -36 1 -47 -11z"/>
<path d="M2436 869 c3 -19 13 -59 21 -89 8 -30 15 -74 14 -97 0 -46 16 -66 50
-61 49 7 39 79 -12 83 -22 1 -26 10 -44 93 -19 87 -42 142 -29 71z"/>
<path d="M2866 884 c-3 -8 1 -26 10 -40 20 -29 28 -31 21 -5 -3 12 1 22 10 25
12 5 13 9 3 21 -16 19 -36 19 -44 -1z"/>
<path d="M2592 882 c-9 -6 -8 -13 7 -28 10 -11 22 -30 25 -42 12 -37 24 -25
16 14 -10 43 -30 66 -48 56z"/>
<path d="M2820 876 c0 -8 6 -16 13 -19 9 -3 9 -7 -2 -20 -11 -14 -11 -17 0
-17 8 0 21 5 29 10 13 9 13 12 -2 24 -10 7 -18 18 -18 25 0 6 -4 11 -10 11 -5
0 -10 -6 -10 -14z"/>
<path d="M570 865 c0 -8 9 -15 20 -15 11 0 20 -6 20 -14 0 -24 22 -30 36 -11
12 16 11 21 -6 37 -24 22 -70 24 -70 3z"/>
<path d="M2665 850 c3 -5 11 -10 16 -10 6 0 7 5 4 10 -3 6 -11 10 -16 10 -6 0
-7 -4 -4 -10z"/>
<path d="M2483 824 c-9 -23 12 -37 44 -29 l28 7 -24 19 c-28 23 -40 24 -48 3z"/>
<path d="M586 801 c-4 -5 -2 -12 3 -15 5 -4 12 -2 15 3 4 5 2 12 -3 15 -5 4
-12 2 -15 -3z"/>
<path d="M2660 790 c0 -5 5 -10 11 -10 5 0 7 5 4 10 -3 6 -8 10 -11 10 -2 0
-4 -4 -4 -10z"/>
<path d="M556 782 c-3 -6 -1 -14 5 -17 15 -10 25 3 12 16 -7 7 -13 7 -17 1z"/>
<path d="M3040 774 c0 -9 5 -14 12 -12 18 6 21 28 4 28 -9 0 -16 -7 -16 -16z"/>
<path d="M3815 780 c-3 -5 1 -10 10 -10 9 0 13 5 10 10 -3 6 -8 10 -10 10 -2
0 -7 -4 -10 -10z"/>
<path d="M1836 761 c-13 -15 -15 -24 -7 -38 7 -15 5 -22 -10 -31 -34 -22 -20
-72 21 -72 11 0 40 29 40 40 0 5 -7 16 -16 24 -8 9 -11 16 -5 16 6 0 17 13 25
29 24 45 -13 70 -48 32z"/>
<path d="M600 746 c0 -18 16 -29 30 -21 13 8 1 35 -16 35 -8 0 -14 -6 -14 -14z"/>
<path d="M1924 746 c-9 -24 4 -48 23 -44 12 2 18 12 18 28 0 29 -32 41 -41 16z"/>
<path d="M3733 743 c-17 -6 -16 -30 1 -36 21 -8 40 17 24 30 -7 6 -19 8 -25 6z"/>
<path d="M503 723 c-7 -2 -13 -11 -13 -19 0 -12 4 -12 20 -2 31 20 26 35 -7
21z"/>
<path d="M1616 703 c-4 -9 0 -23 9 -32 13 -14 17 -14 31 1 9 9 14 24 11 32 -8
21 -43 20 -51 -1z"/>
<path d="M2960 704 c0 -8 5 -12 10 -9 6 3 10 10 10 16 0 5 -4 9 -10 9 -5 0
-10 -7 -10 -16z"/>
<path d="M2631 701 c-1 -8 -8 -11 -19 -9 -15 4 -17 0 -14 -23 3 -17 12 -31 24
-35 28 -8 32 0 20 43 -5 21 -10 32 -11 24z"/>
<path d="M4210 700 c0 -5 5 -10 10 -10 6 0 10 5 10 10 0 6 -4 10 -10 10 -5 0
-10 -4 -10 -10z"/>
<path d="M1712 688 c6 -18 28 -21 28 -4 0 9 -7 16 -16 16 -9 0 -14 -5 -12 -12z"/>
<path d="M3235 690 c-3 -5 1 -10 9 -10 9 0 16 5 16 10 0 6 -4 10 -9 10 -6 0
-13 -4 -16 -10z"/>
<path d="M1062 679 c2 -6 8 -10 13 -10 5 0 11 4 13 10 2 6 -4 11 -13 11 -9 0
-15 -5 -13 -11z"/>
<path d="M2042 680 c-53 -22 -51 -102 3 -116 15 -4 25 -13 25 -24 0 -23 12
-31 29 -21 8 5 11 17 7 28 -4 12 -1 25 9 33 24 20 19 66 -11 89 -30 23 -30 23
-62 11z"/>
<path d="M615 660 c3 -5 11 -10 16 -10 6 0 7 5 4 10 -3 6 -11 10 -16 10 -6 0
-7 -4 -4 -10z"/>
<path d="M2435 660 c-3 -5 -1 -10 4 -10 6 0 11 5 11 10 0 6 -2 10 -4 10 -3 0
-8 -4 -11 -10z"/>
<path d="M1454 612 c-32 -43 -36 -52 -25 -52 6 0 11 5 11 12 0 6 10 22 22 35
12 13 19 25 16 28 -2 3 -13 -8 -24 -23z"/>
<path d="M2172 616 c1 -10 8 -17 13 -17 15 1 12 24 -3 29 -9 3 -13 -2 -10 -12z"/>
<path d="M2310 601 c0 -11 4 -22 8 -25 14 -9 35 12 29 28 -9 23 -37 20 -37 -3z"/>
<path d="M1686 594 c-4 -10 -1 -24 7 -31 19 -19 49 -5 45 21 -4 27 -43 34 -52
10z"/>
<path d="M1846 583 c10 -44 23 -51 45 -24 29 36 24 51 -16 51 -33 0 -35 -1
-29 -27z"/>
<path d="M1595 561 c-3 -5 -1 -12 5 -16 12 -7 30 2 30 16 0 12 -27 12 -35 0z"/>
<path d="M1500 540 c0 -5 5 -10 10 -10 6 0 10 5 10 10 0 6 -4 10 -10 10 -5 0
-10 -4 -10 -10z"/>
<path d="M3125 540 c-3 -5 1 -10 10 -10 9 0 13 5 10 10 -3 6 -8 10 -10 10 -2
0 -7 -4 -10 -10z"/>
<path d="M1820 530 c0 -5 5 -10 11 -10 5 0 7 5 4 10 -3 6 -8 10 -11 10 -2 0
-4 -4 -4 -10z"/>
<path d="M1450 515 c-16 -19 -10 -26 17 -19 13 4 20 11 16 20 -7 18 -17 18
-33 -1z"/>
<path d="M2677 489 c3 -19 9 -41 15 -49 6 -10 7 -2 3 25 -4 22 -10 44 -15 49
-5 5 -6 -6 -3 -25z"/>
<path d="M2390 494 c0 -8 5 -12 10 -9 6 4 8 11 5 16 -9 14 -15 11 -15 -7z"/>
<path d="M1384 485 c-4 -9 -2 -21 4 -27 15 -15 44 -1 40 19 -4 23 -36 29 -44
8z"/>
<path d="M1585 490 c3 -5 8 -10 11 -10 2 0 4 5 4 10 0 6 -5 10 -11 10 -5 0 -7
-4 -4 -10z"/>
<path d="M5445 490 c4 -6 11 -8 16 -5 14 9 11 15 -7 15 -8 0 -12 -5 -9 -10z"/>
<path d="M2230 476 c0 -9 5 -16 10 -16 6 0 10 4 10 9 0 6 -4 13 -10 16 -5 3
-10 -1 -10 -9z"/>
<path d="M1497 473 c-12 -11 -8 -23 8 -23 8 0 15 7 15 15 0 16 -12 20 -23 8z"/>
<path d="M2077 464 c-9 -10 2 -24 19 -24 8 0 14 7 14 15 0 15 -21 21 -33 9z"/>
<path d="M1270 361 c-5 -11 -16 -25 -23 -33 -19 -20 -38 -68 -27 -68 6 0 10 5
10 11 0 7 6 17 13 23 22 17 60 86 48 86 -6 0 -15 -9 -21 -19z"/>
<path d="M1750 350 c0 -5 5 -10 10 -10 6 0 10 5 10 10 0 6 -4 10 -10 10 -5 0
-10 -4 -10 -10z"/>
<path d="M2910 272 c0 -5 6 -16 13 -25 11 -16 13 -16 31 4 15 18 16 21 2 16
-9 -4 -16 -2 -16 3 0 6 -7 10 -15 10 -8 0 -15 -4 -15 -8z"/>
<path d="M4400 229 c0 -5 5 -7 10 -4 6 3 10 8 10 11 0 2 -4 4 -10 4 -5 0 -10
-5 -10 -11z"/>
<path d="M2827 143 c8 -54 43 -143 55 -143 6 0 8 14 4 38 -4 20 -8 48 -10 62
-1 14 -10 26 -20 28 -9 2 -16 9 -15 15 3 23 -1 37 -10 37 -6 0 -7 -17 -4 -37z"/>
<path d="M2070 100 c0 -5 5 -10 10 -10 6 0 10 5 10 10 0 6 -4 10 -10 10 -5 0
-10 -4 -10 -10z"/>
<path d="M1810 70 c0 -5 5 -10 11 -10 5 0 7 5 4 10 -3 6 -8 10 -11 10 -2 0 -4
-4 -4 -10z"/>
</g>
</svg>
